<svg width="888" height="163" viewBox="0 0 888 163" fill="none" xmlns="http://www.w3.org/2000/svg">
<mask id="mask0_1_10415" style="mask-type:luminance" maskUnits="userSpaceOnUse" x="0" y="0" width="888" height="229">
<path d="M887.536 0.528931H0.463867V228.896H887.536V0.528931Z" fill="white"/>
</mask>
<g mask="url(#mask0_1_10415)">
<path d="M333.924 13.1489C371.969 4.74009 410.818 0.508373 449.782 0.528944C630.982 0.528944 791.075 90.838 887.536 228.896H333.924V13.1489Z" fill="#7B93C7"/>
<path d="M333.919 87.6429V228.896H837.464C837.464 228.896 823.977 202.008 810.726 192.07C810.726 192.07 802.05 195.698 794.794 189.704C787.538 183.71 793.374 173.456 789.904 171.721C786.434 169.986 785.804 178.977 772.394 177.716C758.984 176.455 716.71 159.733 718.13 136.386C718.13 136.386 710.558 144.905 703.93 139.386C697.302 133.867 690.048 127.397 685.63 127.555C681.212 127.713 669.383 129.448 665.281 126.766C661.179 124.084 656.921 118.406 653.135 119.036C649.349 119.666 642.093 118.721 631.682 113.358C621.271 107.995 617.8 104.051 611.175 106.89C604.55 109.729 600.764 112.569 594.454 110.045C588.144 107.521 587.829 102 587.829 102C587.829 102 575.998 104.366 568.899 101.211C568.899 101.211 571.108 126.293 526.15 117.617C481.192 108.941 472.675 84.6479 472.675 84.6479C472.675 84.6479 461.948 96.7939 445.075 83.2279C445.075 83.2279 429.142 94.9019 413.683 79.4429C413.683 79.4429 396.805 88.1179 369.199 79.4429C369.199 79.4429 369.515 88.1179 355.16 91.5889C340.805 95.0599 333.917 87.6449 333.917 87.6449M530.864 185.105C530.864 185.105 552.509 177.185 560.224 193.095C560.224 193.095 551.985 183.535 530.864 185.105ZM690.864 174.496C690.864 174.496 729.825 167.796 737.941 197.02C737.941 197.02 726.984 178.351 690.864 174.496ZM591.61 172.002C591.61 172.002 595.797 177.939 600.956 180.094C600.956 180.094 601.491 165.424 623.539 167.994C644.165 170.402 644.712 182.574 642.312 186.311C639.912 190.048 637.292 194.988 615.073 190.858C592.854 186.728 591.61 171.998 591.61 171.998M585.483 159.817C585.483 159.817 589.328 148.545 608.783 149.651C628.238 150.757 639.464 164.211 641.396 168.729C641.396 168.729 634.259 158.181 615.296 154.264C596.333 150.347 585.482 159.824 585.482 159.824M367.693 124.674C390.028 109.351 431.193 87.7839 495.16 135.405C495.16 135.405 469.74 117.277 433.482 115.505C416.361 114.668 403.413 118.312 393.997 123.305C378.063 131.755 374.348 151.694 393.737 163.005C406.346 170.358 416.337 174.355 434.307 175.392C488.891 178.545 492.598 143.922 492.598 143.922C492.598 143.922 507.826 150.302 502.111 171.19C496.396 192.078 419.553 208.39 382.901 186.32C346.249 164.25 350.746 136.305 367.693 124.679M652.454 137.653C660.879 143.444 670.872 146.619 674.328 145.311C677.784 144.003 676.943 139.521 676.943 139.521C676.943 139.521 686.043 150.841 675.822 151.662C666.514 152.409 652.454 137.653 652.454 137.653ZM784.354 202.972C790.101 209.528 797.831 215.654 801.098 216.698C804.365 217.742 804.756 215.342 804.756 215.342C804.756 215.342 809.716 224.689 800.802 220.242C792.687 216.191 784.354 202.975 784.354 202.975" fill="#1D1C1F"/>
<path d="M780.837 168.329C773.138 157.407 762.176 149.206 749.525 144.904C728.781 138.121 727.598 144.817 733.04 153.773C733.04 153.773 720.34 144.115 722.353 136.425C724.366 128.735 742.229 132.876 757.846 142.459C773.463 152.042 777.998 161.613 780.837 168.329Z" fill="#1D1C1F"/>
<path d="M679.249 121.635C679.249 121.635 671.52 116.508 665.368 116.508C659.216 116.508 661.503 120.608 661.503 120.608C661.503 120.608 656.692 117.374 658.903 113.036C661.114 108.698 673.337 114.136 679.252 121.636" fill="#1D1C1F"/>
<path d="M603.808 105.545C603.808 105.545 605.701 103.297 600.14 100.458C594.579 97.619 590.321 99.511 594.225 104.125C598.129 108.739 603.675 107.384 603.808 105.545Z" fill="#1D1C1F"/>
<path d="M564.411 107.255C564.411 107.255 564.648 94.7789 535.311 85.6689C505.974 76.5589 491.3 84.4859 496.506 100.339C496.506 100.339 474.5 91.8209 478.76 75.8489C483.02 59.8769 523.477 68.8689 535.784 74.5489C549.341 80.8039 565.835 87.5629 564.415 107.256" fill="#1D1C1F"/>
<path d="M690.58 97.9729C690.58 97.9729 695.628 104.046 707.301 108.384C718.974 112.722 720.157 106.807 720.157 106.807C720.157 106.807 725.205 115.562 712.507 115.007C699.809 114.452 692.315 104.202 690.58 97.9709" fill="#1D1C1F"/>
<path d="M714.399 105.387C714.399 105.387 709.193 101.049 703.672 100.812C698.151 100.575 693.498 99.5499 694.05 96.8689C694.602 94.1879 707.379 95.1339 714.399 105.387Z" fill="#1D1C1F"/>
<path d="M651.972 94.0689C651.972 94.0689 640.023 102.232 616.361 94.0689C592.699 85.9059 577.674 77.1509 572.824 71.4689C572.824 71.4689 577.201 85.7839 611.865 100.81C646.529 115.836 654.693 100.928 651.972 94.0659" fill="#1D1C1F"/>
<path d="M642.271 84.0129C642.271 84.0129 630.439 73.8039 609.853 66.8409C589.267 59.8779 577.792 65.7929 589.386 79.0409C589.386 79.0409 567.737 69.3409 573.652 57.0359C579.567 44.7309 624.998 59.5199 642.271 84.0099" fill="#1D1C1F"/>
<path d="M438.294 83.461C438.294 83.461 444.994 82.436 440.581 76.047C436.168 69.658 425.595 70.21 421.181 71.63C416.767 73.05 416.291 78.255 419.603 80.23C419.603 80.23 418.026 76.951 425.519 77.092C433.012 77.233 439.637 81.492 438.296 83.464" fill="#1D1C1F"/>
<path d="M384.164 55.0659C384.164 55.0659 384.794 49.4659 371.938 49.4659C359.082 49.4659 358.056 56.8009 358.056 56.8009C358.056 56.8009 349.144 57.0379 347.408 55.6179C345.672 54.1979 348.355 46.0749 363.735 44.8909C379.115 43.7069 387.712 46.7059 384.164 55.0659Z" fill="#1D1C1F"/>
<path d="M382.899 58.6949C382.899 58.6949 376.43 65.5569 361.446 66.7399C346.462 67.9229 342.964 59.8779 342.964 59.8779C342.964 59.8779 355.847 65.0049 382.9 58.6949" fill="#1D1C1F"/>
<path d="M365.88 83.5579C365.88 83.5579 372.969 75.1979 359.088 73.3829C345.207 71.5679 337.713 77.3269 335.588 80.0089C333.463 82.6909 336.771 86.3189 341.582 87.8169C341.582 87.8169 337.638 85.5299 344.5 81.7439C351.362 77.9579 358.382 79.2199 361.379 79.7719C364.376 80.3239 365.939 81.2809 365.88 83.5579Z" fill="#1D1C1F"/>
<path d="M545.777 25.3539C545.777 25.3539 553.733 21.5629 540.517 18.1839C527.031 14.7359 519.763 15.6999 516.791 16.3169C514.233 16.8479 515.281 19.7559 519.761 21.7039C519.761 21.7039 518.055 19.8249 525.227 19.3539C532.399 18.8829 539.056 21.2189 541.897 22.2229C544.738 23.2269 546.13 24.1169 545.777 25.3539Z" fill="#1D1C1F"/>
<path d="M479.714 46.391C479.714 46.391 478.414 51.833 466.227 51.715C454.04 51.597 449.782 44.645 449.782 44.645C449.782 44.645 462.204 52.306 479.714 46.391Z" fill="#1D1C1F"/>
<path d="M476.164 45.6809C473.252 42.8328 469.353 41.2204 465.28 41.1809C458.536 41.1809 457.235 44.1949 455.223 44.6399C453.211 45.0849 449.071 38.105 459.601 37.159C470.131 36.213 474.981 40.5899 476.164 45.6769" fill="#1D1C1F"/>
<path d="M425.22 21.9919C425.262 22.9469 427.333 23.6329 429.846 23.5229C432.359 23.4129 434.363 22.5499 434.321 21.5949C434.279 20.6399 432.208 19.9539 429.695 20.0639C427.182 20.1739 425.178 21.0369 425.22 21.9919Z" fill="#1D1C1F"/>
<path d="M454.611 14.086C454.596 15.295 459.866 16.341 466.382 16.423C472.898 16.505 478.192 15.591 478.207 14.382C478.222 13.173 472.953 12.127 466.437 12.046C459.921 11.965 454.626 12.877 454.611 14.086Z" fill="#1D1C1F"/>
<path d="M570.385 31.615C570.05 32.776 575.96 35.501 583.585 37.7C591.21 39.899 597.663 40.74 597.998 39.578C598.333 38.416 592.423 35.693 584.798 33.494C577.173 31.295 570.719 30.454 570.384 31.615" fill="#1D1C1F"/>
<path d="M511.811 53.171C511.565 54.355 515.992 56.271 521.699 57.461C527.406 58.651 532.232 58.649 532.478 57.466C532.724 56.283 528.297 54.366 522.59 53.175C516.883 51.984 512.057 51.987 511.811 53.175" fill="#1D1C1F"/>
<path d="M352.508 29.689C352.754 31.502 356.838 32.445 361.629 31.789C366.42 31.133 370.105 29.143 369.859 27.33C369.613 25.517 365.529 24.574 360.738 25.224C355.947 25.874 352.262 27.871 352.508 29.684" fill="#1D1C1F"/>
<path d="M377.564 18.0799C377.714 19.5439 380.971 20.4099 384.839 20.0139C388.707 19.6179 391.723 18.1139 391.573 16.6479C391.423 15.1819 388.166 14.3179 384.298 14.7139C380.43 15.1099 377.414 16.6139 377.564 18.0799Z" fill="#1D1C1F"/>
<path d="M339.394 23.1289C339.578 24.2289 342.084 24.7289 344.994 24.2389C347.904 23.7489 350.108 22.4659 349.924 21.3659C349.74 20.2659 347.233 19.7659 344.324 20.2559C341.415 20.7459 339.21 22.0289 339.394 23.1289Z" fill="#1D1C1F"/>
<path d="M703.692 81.8579C703.092 82.7999 706.345 85.9269 710.949 88.8409C715.553 91.7549 719.77 93.3529 720.366 92.4109C720.962 91.4689 717.714 88.3419 713.109 85.4279C708.504 82.5139 704.288 80.9159 703.692 81.8579Z" fill="#1D1C1F"/>
<path d="M643.254 61.6089C642.854 62.6339 645.064 64.4539 648.19 65.6739C651.316 66.8939 654.174 67.0519 654.574 66.0269C654.974 65.0019 652.764 63.1819 649.638 61.9619C646.512 60.7419 643.654 60.5839 643.254 61.6089Z" fill="#1D1C1F"/>
<path d="M756.964 114.611C755.785 115.98 757.235 119.163 760.202 121.72C763.169 124.277 766.533 125.241 767.712 123.872C768.891 122.503 767.442 119.321 764.474 116.763C761.506 114.205 758.143 113.242 756.964 114.611Z" fill="#1D1C1F"/>
<path d="M554.076 13.149C516.031 4.74014 477.181 0.508426 438.218 0.529005C257.022 0.529005 96.9249 90.838 0.463867 228.896H554.076V13.149Z" fill="#7B93C7"/>
<path d="M532.837 91.5869C518.482 88.1169 518.798 79.4409 518.798 79.4409C491.192 88.1169 474.314 79.4409 474.314 79.4409C458.855 94.8999 442.923 83.2289 442.923 83.2289C426.044 96.7949 415.317 84.6489 415.317 84.6489C415.317 84.6489 406.799 108.942 361.842 117.618C316.885 126.294 319.093 101.212 319.093 101.212C311.993 104.367 300.163 102.001 300.163 102.001C300.163 102.001 299.848 107.522 293.538 110.046C287.228 112.57 283.438 109.731 276.817 106.891C270.196 104.051 266.717 107.991 256.31 113.359C245.903 118.727 238.643 119.668 234.857 119.038C231.071 118.408 226.812 124.085 222.711 126.767C218.61 129.449 206.778 127.714 202.362 127.556C197.946 127.398 190.689 133.866 184.062 139.387C177.435 144.908 169.862 136.387 169.862 136.387C171.282 159.734 129.006 176.455 115.598 177.717C102.19 178.979 101.559 169.987 98.0878 171.722C94.6168 173.457 100.455 183.711 93.1978 189.705C85.9408 195.699 77.2658 192.071 77.2658 192.071C64.0148 202.009 50.5278 228.897 50.5278 228.897H554.08V87.6429C554.08 87.6429 547.192 95.0569 532.837 91.5869ZM327.775 193.095C335.49 177.186 357.135 185.106 357.135 185.106C336.014 183.535 327.775 193.095 327.775 193.095ZM150.064 197.02C158.18 167.799 197.141 174.496 197.141 174.496C161.021 178.351 150.064 197.02 150.064 197.02ZM272.932 190.862C250.713 194.993 248.092 190.052 245.693 186.315C243.294 182.578 243.838 170.406 264.464 167.998C286.513 165.424 287.047 180.098 287.047 180.098C292.206 177.943 296.393 172.006 296.393 172.006C296.393 172.006 295.149 186.735 272.93 190.866M272.706 154.266C253.74 158.183 246.606 168.731 246.606 168.731C248.542 164.216 259.767 150.766 279.222 149.66C298.677 148.554 302.522 159.826 302.522 159.826C302.522 159.826 291.673 150.348 272.707 154.266M505.102 186.317C468.45 208.387 391.602 192.074 385.892 171.187C380.182 150.3 395.405 143.919 395.405 143.919C395.405 143.919 399.112 178.542 453.696 175.39C471.664 174.352 481.657 170.355 494.266 163.002C513.655 151.695 509.94 131.756 494.006 123.302C484.59 118.308 471.642 114.664 454.521 115.502C418.263 117.276 392.843 135.402 392.843 135.402C456.81 87.7799 497.975 109.347 520.31 124.67C537.257 136.296 541.754 164.241 505.102 186.311M212.178 151.661C201.953 150.841 211.057 139.52 211.057 139.52C211.057 139.52 210.216 144.003 213.672 145.311C217.128 146.619 227.121 143.443 235.546 137.652C235.546 137.652 221.486 152.408 212.178 151.661ZM87.1958 220.239C78.2818 224.689 83.2418 215.339 83.2418 215.339C83.2418 215.339 83.6328 217.739 86.8998 216.694C90.1668 215.649 97.8998 209.524 103.644 202.968C103.644 202.968 95.3108 216.184 87.1958 220.235" fill="#1D1C1F"/>
<path d="M107.164 168.329C114.863 157.407 125.825 149.206 138.476 144.904C159.22 138.121 160.403 144.817 154.961 153.773C154.961 153.773 167.661 144.115 165.648 136.425C163.635 128.735 145.772 132.876 130.155 142.459C114.538 152.042 110.002 161.611 107.164 168.329Z" fill="#1D1C1F"/>
<path d="M208.75 121.635C208.75 121.635 216.479 116.508 222.632 116.508C228.785 116.508 226.496 120.608 226.496 120.608C226.496 120.608 231.308 117.374 229.096 113.036C226.884 108.698 214.662 114.136 208.747 121.636" fill="#1D1C1F"/>
<path d="M284.192 105.545C284.192 105.545 282.299 103.297 287.86 100.458C293.421 97.619 297.679 99.511 293.775 104.125C289.871 108.739 284.325 107.384 284.192 105.545Z" fill="#1D1C1F"/>
<path d="M323.589 107.255C323.589 107.255 323.352 94.7789 352.689 85.6689C382.026 76.5589 396.7 84.4859 391.489 100.339C391.489 100.339 413.495 91.8209 409.235 75.8489C404.975 59.8769 364.518 68.8689 352.211 74.5489C338.664 80.8029 322.164 87.5619 323.589 107.255Z" fill="#1D1C1F"/>
<path d="M197.42 97.9729C197.42 97.9729 192.372 104.046 180.699 108.384C169.026 112.722 167.843 106.807 167.843 106.807C167.843 106.807 162.795 115.562 175.493 115.007C188.191 114.452 195.685 104.202 197.42 97.9709" fill="#1D1C1F"/>
<path d="M173.601 105.387C173.601 105.387 178.806 101.049 184.327 100.812C189.848 100.575 194.501 99.5499 193.95 96.8689C193.399 94.1879 180.62 95.1339 173.601 105.387Z" fill="#1D1C1F"/>
<path d="M236.028 94.0689C236.028 94.0689 247.977 102.232 271.639 94.0689C295.301 85.9059 310.326 77.1509 315.176 71.4689C315.176 71.4689 310.799 85.7839 276.135 100.81C241.471 115.836 233.307 100.928 236.028 94.0659" fill="#1D1C1F"/>
<path d="M245.729 84.0129C245.729 84.0129 257.564 73.8039 278.146 66.8409C298.728 59.8779 310.207 65.7929 298.613 79.0409C298.613 79.0409 320.263 69.3409 314.348 57.0359C308.433 44.7309 263.002 59.5199 245.729 84.0099" fill="#1D1C1F"/>
<path d="M449.706 83.461C449.706 83.461 443.006 82.436 447.419 76.047C451.832 69.658 462.405 70.21 466.819 71.63C471.233 73.05 471.709 78.255 468.397 80.23C468.397 80.23 469.974 76.951 462.481 77.092C454.988 77.233 448.363 81.492 449.704 83.464" fill="#1D1C1F"/>
<path d="M503.839 55.0659C503.839 55.0659 503.208 49.4659 516.064 49.4659C528.92 49.4659 529.946 56.8009 529.946 56.8009C529.946 56.8009 538.858 57.0379 540.594 55.6179C542.33 54.1979 539.647 46.0749 524.267 44.8909C508.887 43.7069 500.29 46.7059 503.839 55.0659Z" fill="#1D1C1F"/>
<path d="M505.101 58.6949C505.101 58.6949 511.568 65.5569 526.554 66.7399C541.54 67.9229 545.037 59.8779 545.037 59.8779C545.037 59.8779 532.154 65.0049 505.101 58.6949Z" fill="#1D1C1F"/>
<path d="M522.12 83.5579C522.12 83.5579 515.031 75.1979 528.912 73.3829C542.793 71.5679 550.287 77.3269 552.412 80.0089C554.537 82.6909 551.229 86.3189 546.418 87.8169C546.418 87.8169 550.362 85.5299 543.5 81.7439C536.638 77.9579 529.618 79.2199 526.621 79.7719C523.624 80.3239 522.062 81.2809 522.116 83.5579" fill="#1D1C1F"/>
<path d="M342.223 25.3539C342.223 25.3539 334.267 21.5629 347.483 18.1839C360.969 14.7359 368.237 15.6999 371.209 16.3169C373.767 16.8479 372.719 19.7559 368.239 21.7039C368.239 21.7039 369.945 19.8249 362.773 19.3539C355.601 18.8829 348.944 21.2189 346.103 22.2229C343.262 23.2269 341.87 24.1169 342.223 25.3539Z" fill="#1D1C1F"/>
<path d="M408.285 46.391C408.285 46.391 409.585 51.833 421.772 51.715C433.959 51.597 438.217 44.645 438.217 44.645C438.217 44.645 425.795 52.306 408.285 46.391Z" fill="#1D1C1F"/>
<path d="M411.835 45.6809C414.746 42.8328 418.646 41.2204 422.719 41.1809C429.463 41.1809 430.764 44.1949 432.776 44.6399C434.788 45.0849 438.928 38.105 428.398 37.159C417.868 36.213 413.018 40.5899 411.835 45.6769" fill="#1D1C1F"/>
<path d="M462.779 21.9919C462.737 22.9469 460.666 23.6329 458.153 23.5229C455.64 23.4129 453.636 22.5499 453.678 21.5949C453.72 20.6399 455.791 19.9539 458.304 20.0639C460.817 20.1739 462.821 21.0369 462.779 21.9919Z" fill="#1D1C1F"/>
<path d="M433.389 14.086C433.404 15.295 428.134 16.341 421.618 16.423C415.102 16.505 409.808 15.591 409.793 14.382C409.778 13.173 415.047 12.127 421.563 12.046C428.079 11.965 433.374 12.877 433.389 14.086Z" fill="#1D1C1F"/>
<path d="M317.615 31.615C317.95 32.776 312.04 35.501 304.415 37.7C296.79 39.899 290.337 40.74 290.002 39.578C289.667 38.416 295.577 35.693 303.202 33.494C310.827 31.295 317.281 30.454 317.616 31.615" fill="#1D1C1F"/>
<path d="M376.188 53.171C376.434 54.355 372.007 56.271 366.3 57.461C360.593 58.651 355.767 58.649 355.521 57.466C355.275 56.283 359.702 54.366 365.409 53.175C371.116 51.984 375.942 51.987 376.188 53.175" fill="#1D1C1F"/>
<path d="M535.492 29.689C535.246 31.502 531.163 32.445 526.371 31.789C521.579 31.133 517.895 29.143 518.141 27.33C518.387 25.517 522.471 24.574 527.262 25.224C532.053 25.874 535.738 27.871 535.492 29.684" fill="#1D1C1F"/>
<path d="M510.438 18.0799C510.288 19.5439 507.031 20.4099 503.163 20.0139C499.295 19.6179 496.279 18.1139 496.429 16.6479C496.579 15.1819 499.836 14.3179 503.704 14.7139C507.572 15.1099 510.588 16.6139 510.438 18.0799Z" fill="#1D1C1F"/>
<path d="M548.606 23.1289C548.422 24.2289 545.916 24.7289 543.006 24.2389C540.096 23.7489 537.892 22.4659 538.076 21.3659C538.26 20.2659 540.767 19.7659 543.676 20.2559C546.585 20.7459 548.79 22.0289 548.606 23.1289Z" fill="#1D1C1F"/>
<path d="M184.308 81.8579C184.908 82.7999 181.654 85.9269 177.051 88.8409C172.448 91.7549 168.23 93.3529 167.633 92.4109C167.036 91.4689 170.286 88.3419 174.89 85.4279C179.494 82.5139 183.711 80.9159 184.308 81.8579Z" fill="#1D1C1F"/>
<path d="M244.746 61.6089C245.146 62.6339 242.936 64.4539 239.81 65.6739C236.684 66.8939 233.826 67.0519 233.426 66.0269C233.026 65.0019 235.236 63.1819 238.362 61.9619C241.488 60.7419 244.346 60.5839 244.746 61.6089Z" fill="#1D1C1F"/>
<path d="M131.034 114.611C132.213 115.98 130.763 119.163 127.796 121.72C124.829 124.277 121.465 125.241 120.286 123.872C119.107 122.503 120.556 119.321 123.524 116.763C126.492 114.205 129.855 113.242 131.034 114.611Z" fill="#1D1C1F"/>
</g>
</svg>
