<svg width="45" height="50" viewBox="0 0 45 50" fill="none" xmlns="http://www.w3.org/2000/svg">
<path d="M29.4769 49.563C29.3511 49.5628 29.2288 49.521 29.1292 49.4441C29.0295 49.3673 28.9581 49.2597 28.9259 49.138L25.5409 36.469L15.0999 33.53C14.9792 33.4972 14.8727 33.4255 14.7967 33.3261C14.7207 33.2267 14.6796 33.1051 14.6796 32.98C14.6796 32.8549 14.7207 32.7333 14.7967 32.6339C14.8727 32.5345 14.9792 32.4628 15.0999 32.43L25.5399 29.492L28.9249 16.822C28.9577 16.7013 29.0294 16.5947 29.1288 16.5188C29.2282 16.4428 29.3498 16.4017 29.4749 16.4017C29.6 16.4017 29.7216 16.4428 29.821 16.5188C29.9204 16.5947 29.9921 16.7013 30.0249 16.822L33.4089 29.492L43.8499 32.43C43.9706 32.4628 44.0772 32.5345 44.1531 32.6339C44.2291 32.7333 44.2702 32.8549 44.2702 32.98C44.2702 33.1051 44.2291 33.2267 44.1531 33.3261C44.0772 33.4255 43.9706 33.4972 43.8499 33.53L33.4089 36.469L30.0249 49.138C29.9926 49.2596 29.9211 49.3671 29.8215 49.4439C29.7219 49.5208 29.5997 49.5626 29.4739 49.563M17.3589 32.981L26.1589 35.457C26.2546 35.4832 26.3418 35.5338 26.4119 35.604C26.4821 35.6741 26.5327 35.7613 26.5589 35.857L29.4759 46.778L32.3919 35.857C32.4183 35.7614 32.469 35.6743 32.5391 35.6042C32.6092 35.5341 32.6963 35.4834 32.7919 35.457L41.5919 32.981L32.7919 30.505C32.6962 30.4788 32.609 30.4282 32.5389 30.358C32.4687 30.2879 32.4181 30.2007 32.3919 30.105L29.4759 19.184L26.5599 30.1C26.5339 30.1958 26.4833 30.2831 26.4131 30.3532C26.343 30.4234 26.2557 30.474 26.1599 30.5L17.3589 32.981Z" fill="#0D0B21"/>
<path d="M12.9119 13.594L20.2239 11.537L12.9119 9.48L10.5539 0.651001L8.19995 9.48L0.887939 11.537L8.19995 13.594L10.558 22.423L12.9119 13.594Z" fill="#EBE1D8"/>
<path d="M10.5539 22.994C10.4282 22.994 10.306 22.9524 10.2063 22.8757C10.1066 22.799 10.0351 22.6915 10.0029 22.57L7.72894 14.055L0.728943 12.086C0.608235 12.0531 0.501681 11.9815 0.42572 11.8821C0.349759 11.7827 0.308594 11.6611 0.308594 11.536C0.308594 11.4109 0.349759 11.2893 0.42572 11.1899C0.501681 11.0905 0.608235 11.0188 0.728943 10.986L7.72894 9.01698L9.99994 0.499985C10.0328 0.379277 10.1044 0.272723 10.2038 0.196762C10.3032 0.120801 10.4248 0.0796509 10.5499 0.0796509C10.675 0.0796509 10.7967 0.120801 10.8961 0.196762C10.9955 0.272723 11.0671 0.379277 11.0999 0.499985L13.3739 9.01498L20.3739 10.984C20.4946 11.0168 20.6012 11.0885 20.6772 11.1879C20.7531 11.2873 20.7943 11.4089 20.7943 11.534C20.7943 11.6591 20.7531 11.7807 20.6772 11.8801C20.6012 11.9795 20.4946 12.0511 20.3739 12.084L13.3739 14.053L11.0999 22.568C11.0677 22.6895 10.9962 22.797 10.8966 22.8737C10.7969 22.9504 10.6747 22.992 10.549 22.992M2.98593 11.535L8.34595 13.043C8.44167 13.0691 8.52891 13.1197 8.59906 13.1899C8.66921 13.26 8.71984 13.3473 8.74594 13.443L10.5529 20.208L12.3599 13.443C12.386 13.3473 12.4367 13.26 12.5068 13.1899C12.577 13.1197 12.6642 13.0691 12.7599 13.043L18.1199 11.535L12.7599 10.027C12.6642 10.0009 12.577 9.95027 12.5068 9.88011C12.4367 9.80996 12.386 9.7227 12.3599 9.62698L10.5529 2.86198L8.74594 9.62698C8.71984 9.7227 8.66921 9.80996 8.59906 9.88011C8.52891 9.95027 8.44167 10.0009 8.34595 10.027L2.98593 11.535Z" fill="#0D0B21"/>
</svg>
