<svg width="284" height="98" viewBox="0 0 284 98" fill="none" xmlns="http://www.w3.org/2000/svg">
<path d="M18.253 16.0995C18.0934 14.7518 17.4461 13.7055 16.3111 12.9606C15.1761 12.2158 13.784 11.8434 12.1348 11.8434C10.9289 11.8434 9.8737 12.0385 8.96927 12.4286C8.07371 12.8188 7.37322 13.3552 6.8678 14.038C6.37125 14.7207 6.12298 15.4966 6.12298 16.3655C6.12298 17.0926 6.29588 17.7178 6.64169 18.2409C6.99637 18.7552 7.44859 19.1852 7.99834 19.531C8.54809 19.868 9.12444 20.1473 9.72739 20.369C10.3303 20.5818 10.8845 20.7547 11.3899 20.8877L14.1564 21.6325C14.8658 21.8187 15.6549 22.0759 16.5239 22.4039C17.4017 22.732 18.2397 23.1798 19.0377 23.7473C19.8446 24.3059 20.5096 25.0241 21.0328 25.902C21.5559 26.7798 21.8175 27.8571 21.8175 29.134C21.8175 30.6059 21.4318 31.9359 20.6603 33.1241C19.8978 34.3123 18.7805 35.2566 17.3086 35.9571C15.8456 36.6576 14.0678 37.0078 11.9752 37.0078C10.0244 37.0078 8.33528 36.693 6.9077 36.0635C5.48899 35.4339 4.37175 34.5561 3.556 33.43C2.7491 32.3039 2.29245 30.996 2.18605 29.5064H5.59096C5.67963 30.5349 6.02544 31.3862 6.62839 32.06C7.24021 32.7251 8.01164 33.2216 8.94267 33.5497C9.88256 33.8689 10.8934 34.0285 11.9752 34.0285C13.2343 34.0285 14.3648 33.8246 15.3668 33.4167C16.3687 32.9999 17.1623 32.4236 17.7476 31.6876C18.3328 30.9428 18.6254 30.0739 18.6254 29.0808C18.6254 28.1763 18.3727 27.4404 17.8673 26.8729C17.3618 26.3054 16.6968 25.8443 15.8722 25.4896C15.0476 25.135 14.1564 24.8246 13.1988 24.5586L9.8471 23.601C7.71903 22.9892 6.03431 22.1158 4.79293 20.9808C3.55156 19.8458 2.93088 18.3606 2.93088 16.5252C2.93088 15 3.34319 13.67 4.16782 12.535C5.00131 11.3912 6.11854 10.5045 7.51952 9.87494C8.92937 9.23652 10.5033 8.91731 12.2412 8.91731C13.9968 8.91731 15.5574 9.23208 16.9229 9.86164C18.2884 10.4823 19.3702 11.3336 20.1682 12.4153C20.9751 13.4971 21.4007 14.7252 21.4451 16.0995H18.253ZM26.8151 44.19V16.0995H29.8476V19.3448H30.22C30.4506 18.9902 30.7698 18.5379 31.1777 17.9882C31.5944 17.4296 32.1885 16.933 32.9599 16.4986C33.7402 16.0552 34.7954 15.8335 36.1254 15.8335C37.8456 15.8335 39.3619 16.2636 40.6742 17.1237C41.9865 17.9838 43.0106 19.203 43.7466 20.7813C44.4825 22.3596 44.8505 24.2217 44.8505 26.3675C44.8505 28.531 44.4825 30.4064 43.7466 31.9935C43.0106 33.5719 41.9909 34.7955 40.6875 35.6645C39.384 36.5246 37.8811 36.9546 36.1786 36.9546C34.8663 36.9546 33.8156 36.7374 33.0264 36.3029C32.2373 35.8595 31.6299 35.3586 31.2043 34.7999C30.7786 34.2325 30.4506 33.7625 30.22 33.3901H29.954V44.19H26.8151ZM29.9008 26.3143C29.9008 27.8571 30.1269 29.2182 30.5791 30.3975C31.0313 31.5679 31.6919 32.4857 32.5609 33.1507C33.4299 33.8068 34.4939 34.1349 35.753 34.1349C37.0653 34.1349 38.1604 33.7891 39.0382 33.0975C39.9249 32.397 40.5899 31.4571 41.0333 30.2778C41.4855 29.0896 41.7116 27.7684 41.7116 26.3143C41.7116 24.8778 41.4899 23.5832 41.0466 22.4305C40.6121 21.269 39.9515 20.3512 39.0648 19.6774C38.187 18.9946 37.083 18.6532 35.753 18.6532C34.4762 18.6532 33.4033 18.9769 32.5343 19.6242C31.6653 20.2626 31.0092 21.1581 30.5658 22.3108C30.1225 23.4547 29.9008 24.7891 29.9008 26.3143ZM55.6504 37.0078C54.3559 37.0078 53.181 36.764 52.1258 36.2763C51.0707 35.7797 50.2327 35.0659 49.612 34.1349C48.9914 33.195 48.681 32.06 48.681 30.73C48.681 29.5596 48.9116 28.6108 49.3726 27.8837C49.8337 27.1478 50.45 26.5714 51.2214 26.1547C51.9928 25.7379 52.844 25.4276 53.7751 25.2236C54.715 25.0108 55.6593 24.8424 56.6081 24.7182C57.8494 24.5586 58.8558 24.4389 59.6273 24.3591C60.4076 24.2704 60.975 24.1241 61.3297 23.9202C61.6933 23.7162 61.875 23.3616 61.875 22.8562V22.7497C61.875 21.4374 61.5159 20.4177 60.7977 19.6907C60.0883 18.9636 59.011 18.6 57.5657 18.6C56.0672 18.6 54.8923 18.9281 54.0411 19.5842C53.1899 20.2404 52.5913 20.9409 52.2455 21.6857L49.2662 20.6217C49.7983 19.3803 50.5076 18.4138 51.3943 17.7222C52.2899 17.0217 53.2652 16.534 54.3204 16.2591C55.3844 15.9754 56.4307 15.8335 57.4593 15.8335C58.1155 15.8335 58.8691 15.9133 59.7204 16.0729C60.5805 16.2237 61.4095 16.5385 62.2075 17.0173C63.0144 17.4961 63.6839 18.2187 64.2159 19.1852C64.7479 20.1517 65.0139 21.4463 65.0139 23.069V36.529H61.875V33.7625H61.7154C61.5026 34.2059 61.1479 34.6802 60.6514 35.1856C60.1549 35.6911 59.4943 36.1211 58.6696 36.4758C57.845 36.8305 56.8386 37.0078 55.6504 37.0078ZM56.1293 34.1881C57.3706 34.1881 58.4169 33.9443 59.2682 33.4566C60.1282 32.9689 60.7755 32.3394 61.21 31.5679C61.6534 30.7965 61.875 29.9852 61.875 29.134V26.2611C61.742 26.4207 61.4494 26.567 60.9972 26.7C60.5539 26.8241 60.0396 26.935 59.4544 27.0325C58.878 27.1212 58.315 27.201 57.7652 27.2719C57.2243 27.334 56.7854 27.3872 56.4485 27.4315C55.6327 27.5379 54.8701 27.7108 54.1608 27.9502C53.4603 28.1808 52.8928 28.531 52.4583 29.001C52.0327 29.462 51.8199 30.0916 51.8199 30.8896C51.8199 31.9802 52.2234 32.8049 53.0303 33.3635C53.846 33.9132 54.879 34.1881 56.1293 34.1881ZM79.0426 36.9546C77.1273 36.9546 75.478 36.5024 74.0948 35.598C72.7116 34.6935 71.6475 33.4477 70.9027 31.8605C70.1579 30.2734 69.7855 28.4601 69.7855 26.4207C69.7855 24.3458 70.1667 22.5148 70.9293 20.9276C71.7007 19.3315 72.7736 18.0857 74.148 17.1902C75.5312 16.2857 77.145 15.8335 78.9894 15.8335C80.4258 15.8335 81.7204 16.0995 82.8731 16.6316C84.0258 17.1636 84.9701 17.9084 85.7061 18.866C86.442 19.8237 86.8987 20.9409 87.076 22.2177H83.9371C83.6977 21.2867 83.1657 20.4621 82.3411 19.7439C81.5253 19.0168 80.4258 18.6532 79.0426 18.6532C77.8189 18.6532 76.746 18.9724 75.8239 19.6108C74.9106 20.2404 74.1968 21.1315 73.6825 22.2842C73.1771 23.4281 72.9244 24.7714 72.9244 26.3143C72.9244 27.8926 73.1726 29.267 73.6692 30.4374C74.1746 31.6078 74.884 32.5167 75.7973 33.164C76.7194 33.8113 77.8012 34.1349 79.0426 34.1349C79.8583 34.1349 80.5987 33.993 81.2637 33.7093C81.9288 33.4256 82.4918 33.0177 82.9529 32.4857C83.414 31.9536 83.742 31.3152 83.9371 30.5704H87.076C86.8987 31.7763 86.4598 32.8625 85.7593 33.829C85.0677 34.7866 84.1499 35.5492 83.0061 36.1167C81.8711 36.6753 80.5499 36.9546 79.0426 36.9546ZM100.23 36.9546C98.2617 36.9546 96.5637 36.5201 95.1361 35.6512C93.7174 34.7733 92.6223 33.5497 91.8509 31.9802C91.0883 30.4019 90.707 28.5665 90.707 26.4739C90.707 24.3813 91.0883 22.5369 91.8509 20.9409C92.6223 19.336 93.6952 18.0857 95.0696 17.1902C96.4528 16.2857 98.0666 15.8335 99.9109 15.8335C100.975 15.8335 102.026 16.0109 103.063 16.3655C104.101 16.7202 105.045 17.2966 105.896 18.0946C106.747 18.8838 107.426 19.9301 107.931 21.2335C108.437 22.5369 108.689 24.1419 108.689 26.0483V27.3783H92.9415V24.665H105.497C105.497 23.5123 105.267 22.4837 104.805 21.5793C104.353 20.6749 103.706 19.9611 102.864 19.4379C102.03 18.9148 101.046 18.6532 99.9109 18.6532C98.6607 18.6532 97.5789 18.9636 96.6656 19.5842C95.7612 20.1961 95.0651 20.9941 94.5775 21.9783C94.0898 22.9626 93.8459 24.0177 93.8459 25.1438V26.9527C93.8459 28.4955 94.1119 29.8034 94.644 30.8763C95.1848 31.9403 95.9341 32.7517 96.8917 33.3103C97.8494 33.86 98.9622 34.1349 100.23 34.1349C101.055 34.1349 101.8 34.0196 102.465 33.7891C103.138 33.5497 103.719 33.195 104.207 32.7251C104.695 32.2463 105.071 31.6522 105.338 30.9428L108.37 31.794C108.051 32.8226 107.514 33.727 106.761 34.5073C106.007 35.2788 105.076 35.8817 103.968 36.3162C102.859 36.7418 101.613 36.9546 100.23 36.9546Z" fill="white"/>
<path d="M15.9111 66.8577H19.5288L22.5613 70.8479L23.3593 71.9119L27.8814 77.9237H24.2637L21.2844 73.9335L20.5396 72.9227L15.9111 66.8577ZM28.9987 61.7504C28.9987 64.6233 28.48 67.106 27.4425 69.1986C26.4051 71.2912 24.982 72.905 23.1731 74.04C21.3642 75.1749 19.2982 75.7424 16.9751 75.7424C14.652 75.7424 12.586 75.1749 10.7771 74.04C8.96824 72.905 7.5451 71.2912 6.50766 69.1986C5.47023 67.106 4.95151 64.6233 4.95151 61.7504C4.95151 58.8775 5.47023 56.3947 6.50766 54.3021C7.5451 52.2095 8.96824 50.5957 10.7771 49.4608C12.586 48.3258 14.652 47.7583 16.9751 47.7583C19.2982 47.7583 21.3642 48.3258 23.1731 49.4608C24.982 50.5957 26.4051 52.2095 27.4425 54.3021C28.48 56.3947 28.9987 58.8775 28.9987 61.7504ZM25.8066 61.7504C25.8066 59.3918 25.412 57.4011 24.6228 55.7785C23.8426 54.1558 22.783 52.9277 21.444 52.0942C20.114 51.2608 18.6244 50.844 16.9751 50.844C15.3258 50.844 13.8318 51.2608 12.4929 52.0942C11.1628 52.9277 10.1032 54.1558 9.31405 55.7785C8.53376 57.4011 8.14362 59.3918 8.14362 61.7504C8.14362 64.109 8.53376 66.0996 9.31405 67.7223C10.1032 69.3449 11.1628 70.573 12.4929 71.4065C13.8318 72.24 15.3258 72.6567 16.9751 72.6567C18.6244 72.6567 20.114 72.24 21.444 71.4065C22.783 70.573 23.8426 69.3449 24.6228 67.7223C25.412 66.0996 25.8066 64.109 25.8066 61.7504ZM46.9942 67.0173V54.9405H50.1331V75.37H46.9942V71.9119H46.7814C46.3025 72.9493 45.5577 73.8316 44.5469 74.5587C43.536 75.2769 42.2592 75.636 40.7164 75.636C39.4395 75.636 38.3045 75.3567 37.3114 74.7981C36.3184 74.2306 35.5381 73.3794 34.9706 72.2444C34.4031 71.1006 34.1193 69.6597 34.1193 67.9218V54.9405H37.2582V67.7089C37.2582 69.1986 37.675 70.3868 38.5085 71.2735C39.3508 72.1602 40.4237 72.6035 41.7272 72.6035C42.5075 72.6035 43.3011 72.404 44.108 72.005C44.9237 71.606 45.6065 70.9942 46.1562 70.1695C46.7148 69.3449 46.9942 68.2942 46.9942 67.0173ZM64.4476 75.7956C62.4792 75.7956 60.7812 75.3611 59.3536 74.4922C57.9349 73.6143 56.8398 72.3907 56.0684 70.8212C55.3058 69.2429 54.9245 67.4075 54.9245 65.3149C54.9245 63.2223 55.3058 61.3779 56.0684 59.7819C56.8398 58.177 57.9127 56.9267 59.2871 56.0312C60.6703 55.1267 62.2841 54.6745 64.1284 54.6745C65.1925 54.6745 66.2432 54.8519 67.2806 55.2065C68.3181 55.5612 69.2624 56.1376 70.1136 56.9356C70.9649 57.7248 71.6432 58.7711 72.1486 60.0745C72.654 61.3779 72.9067 62.9829 72.9067 64.8893V66.2193H57.159V63.506H69.7146C69.7146 62.3533 69.4841 61.3247 69.023 60.4203C68.5708 59.5159 67.9235 58.8021 67.0811 58.2789C66.2476 57.7558 65.2634 57.4942 64.1284 57.4942C62.8782 57.4942 61.7964 57.8046 60.8831 58.4253C59.9787 59.0371 59.2826 59.8351 58.795 60.8193C58.3073 61.8036 58.0634 62.8587 58.0634 63.9848V65.7937C58.0634 67.3365 58.3294 68.6444 58.8615 69.7173C59.4023 70.7813 60.1516 71.5927 61.1092 72.1513C62.0669 72.701 63.1797 72.9759 64.4476 72.9759C65.2723 72.9759 66.0171 72.8606 66.6821 72.6301C67.356 72.3907 67.9368 72.036 68.4245 71.5661C68.9122 71.0873 69.289 70.4932 69.555 69.7838L72.5875 70.635C72.2683 71.6636 71.7318 72.568 70.9782 73.3483C70.2245 74.1198 69.2934 74.7227 68.1851 75.1572C67.0767 75.5828 65.8309 75.7956 64.4476 75.7956ZM92.1524 59.5159L89.3327 60.3139C89.1554 59.844 88.8938 59.3873 88.548 58.944C88.2111 58.4918 87.75 58.1193 87.1648 57.8267C86.5795 57.5341 85.8303 57.3878 84.917 57.3878C83.6668 57.3878 82.6249 57.676 81.7914 58.2523C80.9668 58.8198 80.5545 59.5425 80.5545 60.4203C80.5545 61.2006 80.8382 61.8169 81.4057 62.2691C81.9732 62.7213 82.8599 63.0981 84.0658 63.3996L87.0983 64.1444C88.9249 64.5878 90.2859 65.2661 91.1815 66.1794C92.0771 67.0838 92.5248 68.2498 92.5248 69.6774C92.5248 70.8479 92.1879 71.8942 91.514 72.8163C90.849 73.7385 89.918 74.4656 88.7209 74.9976C87.5239 75.5296 86.1318 75.7956 84.5446 75.7956C82.4608 75.7956 80.7362 75.3434 79.3707 74.439C78.0052 73.5345 77.1407 72.2134 76.7771 70.4754L79.7564 69.7306C80.0402 70.8301 80.5766 71.6547 81.3658 72.2045C82.1638 72.7542 83.2057 73.0291 84.4914 73.0291C85.9544 73.0291 87.116 72.7188 87.9761 72.0981C88.8451 71.4685 89.2795 70.7148 89.2795 69.837C89.2795 69.1277 89.0313 68.5336 88.5347 68.0548C88.0382 67.5671 87.2756 67.2035 86.247 66.9641L82.8421 66.1661C80.9712 65.7228 79.5968 65.0356 78.719 64.1045C77.85 63.1646 77.4156 61.9898 77.4156 60.5799C77.4156 59.4272 77.7392 58.4075 78.3865 57.5208C79.0426 56.6341 79.9338 55.9381 81.0599 55.4327C82.1948 54.9272 83.4805 54.6745 84.917 54.6745C86.9387 54.6745 88.5258 55.1179 89.6785 56.0046C90.8401 56.8913 91.6647 58.0617 92.1524 59.5159ZM106.134 54.9405V57.6006H95.5474V54.9405H106.134ZM98.6331 50.046H101.772V69.5178C101.772 70.4045 101.901 71.0695 102.158 71.5129C102.424 71.9474 102.761 72.24 103.169 72.3907C103.585 72.5326 104.024 72.6035 104.485 72.6035C104.831 72.6035 105.115 72.5858 105.336 72.5503C105.558 72.506 105.735 72.4705 105.868 72.4439L106.507 75.2636C106.294 75.3434 105.997 75.4232 105.616 75.503C105.235 75.5917 104.751 75.636 104.166 75.636C103.279 75.636 102.41 75.4454 101.559 75.0641C100.717 74.6828 100.016 74.102 99.4577 73.3217C98.9079 72.5414 98.6331 71.5572 98.6331 70.369V50.046Z" fill="white"/>
<path d="M215.936 78.083C210.268 78.083 204.708 78.13 199.149 78.062C196.811 78.1081 194.474 77.938 192.167 77.554C184.967 76.112 180.895 71.463 179.282 64.463C178.179 59.7438 178.183 54.8335 179.293 50.116C180.902 43.189 184.974 38.185 192.133 37.416C199.259 36.6484 206.447 36.6366 213.576 37.381C220.291 38.098 224.638 43.914 224.82 51.419C225.084 62.282 225.115 73.165 224.804 84.026C224.56 92.544 219.57 97.026 210.954 97.116C201.831 97.216 192.708 97.174 183.584 97.163C180.484 97.163 178.653 95.622 178.606 93.109C178.56 90.518 180.445 88.861 183.66 88.837C189.634 88.792 195.608 88.823 201.583 88.822C203.44 88.822 205.298 88.846 207.153 88.816C214.5 88.702 216.89 85.893 215.936 78.079M216.012 70.05C216.012 63.89 216.266 57.95 215.927 52.034C215.683 47.771 213.027 45.528 208.754 45.353C204.571 45.183 200.369 45.175 196.186 45.333C191.862 45.497 189.229 47.539 187.998 51.608C186.766 55.6397 186.791 59.9509 188.07 63.968C188.523 65.7107 189.548 67.2511 190.98 68.3426C192.413 69.4342 194.169 70.0139 195.97 69.989C202.57 70.211 209.178 70.05 216.016 70.05" fill="white"/>
<path d="M254.38 82.263C249.937 82.263 245.493 82.271 241.051 82.263C237.144 82.254 235.117 80.705 235.157 77.786C235.197 74.842 237.119 73.439 241.157 73.435C248.993 73.428 256.829 73.442 264.664 73.423C265.794 73.4327 266.922 73.3565 268.04 73.195C271.351 72.679 272.423 71.395 272.332 68.224C272.248 65.36 270.689 63.589 267.632 63.461C262.712 63.252 257.777 63.394 252.856 63.197C249.356 63.057 245.933 62.357 243.194 59.92C239.166 56.335 238.909 51.62 239.594 46.782C239.807 44.6294 240.684 42.5963 242.104 40.9642C243.523 39.332 245.415 38.1815 247.517 37.672C249.692 37.0649 251.937 36.7426 254.195 36.713C262.272 36.599 270.351 36.661 278.43 36.67C279.075 36.6567 279.719 36.7127 280.352 36.837C281.38 37.0628 282.301 37.633 282.961 38.4531C283.62 39.2733 283.981 40.2943 283.981 41.347C283.883 42.3575 283.448 43.3057 282.746 44.0388C282.043 44.7719 281.115 45.2471 280.109 45.388C279.307 45.482 278.499 45.5174 277.691 45.494C270.422 45.501 263.151 45.478 255.88 45.514C254.509 45.5113 253.142 45.6412 251.796 45.902C249.573 46.35 248.348 48.038 248.268 50.474C248.187 52.941 249.268 54.604 251.562 55.187C252.746 55.4136 253.948 55.5271 255.153 55.526C260.865 55.837 266.627 55.756 272.274 56.526C277.826 57.284 280.933 61.313 281.229 66.946C281.337 68.6344 281.256 70.3296 280.987 72C279.923 78.094 275.508 81.75 268.919 82.154C268.194 82.197 267.465 82.24 266.74 82.241C262.619 82.249 258.499 82.249 254.38 82.241V82.263Z" fill="white"/>
<path d="M132.831 44.651C132.831 54.861 132.831 64.927 132.831 74.993C132.831 76.123 132.859 77.256 132.766 78.378C132.717 79.3944 132.28 80.3532 131.544 81.0558C130.808 81.7583 129.83 82.1508 128.812 82.152C127.754 82.2016 126.718 81.8407 125.92 81.1445C125.122 80.4483 124.623 79.4708 124.529 78.416C124.473 77.7736 124.454 77.1286 124.472 76.484C124.472 57.46 124.476 38.4363 124.483 19.413C124.4 18.452 124.508 17.4841 124.801 16.565C125.126 15.6333 125.788 14.8572 126.657 14.3896C127.526 13.922 128.538 13.7969 129.495 14.039C130.431 14.1593 131.287 14.6259 131.896 15.3467C132.505 16.0676 132.821 16.9903 132.783 17.933C132.858 22.849 132.824 27.767 132.833 32.683C132.833 33.721 132.833 34.76 132.833 36.183C133.987 36.183 134.997 36.141 136.004 36.191C142.521 36.51 149.104 36.363 155.536 37.308C163.222 38.438 168.179 44.259 168.493 52.008C168.841 60.62 168.706 69.252 168.673 77.876C168.662 80.638 166.966 82.231 164.494 82.234C161.96 82.234 160.317 80.567 160.294 77.645C160.229 70.391 160.279 63.136 160.263 55.881C160.248 48.22 156.729 44.569 149.075 44.421C143.988 44.321 138.897 44.389 133.807 44.393C133.477 44.4469 133.152 44.5323 132.838 44.648" fill="white"/>
</svg>
