<svg width="1921" height="1103" viewBox="0 0 1921 1103" fill="none" xmlns="http://www.w3.org/2000/svg">
<rect x="0.570312" y="0.110107" width="1920" height="1101.95" fill="#1D1C1F"/>
<path d="M1534.14 164.015C1534.14 164.776 1534.36 165.52 1534.79 166.154C1535.21 166.787 1535.81 167.28 1536.51 167.571C1537.22 167.863 1537.99 167.939 1538.74 167.79C1539.48 167.642 1540.17 167.275 1540.71 166.737C1541.25 166.199 1541.61 165.513 1541.76 164.766C1541.91 164.019 1541.83 163.245 1541.54 162.542C1541.25 161.838 1540.76 161.237 1540.13 160.814C1539.49 160.391 1538.75 160.165 1537.99 160.165C1536.97 160.165 1535.99 160.571 1535.26 161.293C1534.54 162.015 1534.14 162.994 1534.14 164.015Z" fill="#313138"/>
<path d="M1510.62 105.708C1510.62 107.373 1511.11 109.001 1512.04 110.386C1512.96 111.77 1514.28 112.85 1515.82 113.487C1517.35 114.124 1519.05 114.291 1520.68 113.966C1522.31 113.642 1523.81 112.84 1524.99 111.662C1526.17 110.485 1526.97 108.985 1527.3 107.351C1527.62 105.718 1527.45 104.025 1526.82 102.487C1526.18 100.948 1525.1 99.6337 1523.71 98.7087C1522.33 97.7838 1520.7 97.2902 1519.04 97.2905C1516.8 97.2905 1514.66 98.1773 1513.08 99.7559C1511.51 101.334 1510.62 103.475 1510.62 105.708Z" fill="#313138"/>
<path d="M941.191 585.691C941.191 587.357 941.685 588.984 942.61 590.369C943.534 591.754 944.849 592.833 946.388 593.471C947.926 594.108 949.619 594.275 951.252 593.95C952.886 593.625 954.386 592.823 955.563 591.646C956.741 590.468 957.543 588.968 957.867 587.335C958.192 585.702 958.025 584.009 957.388 582.471C956.751 580.932 955.671 579.617 954.286 578.692C952.902 577.767 951.274 577.274 949.609 577.274C947.376 577.274 945.235 578.161 943.657 579.74C942.078 581.318 941.191 583.459 941.191 585.691Z" fill="#313138"/>
<path d="M553.5 602.26C553.5 603.925 553.994 605.553 554.919 606.937C555.843 608.321 557.158 609.4 558.696 610.037C560.234 610.674 561.927 610.841 563.559 610.516C565.192 610.191 566.692 609.389 567.869 608.212C569.046 607.035 569.848 605.535 570.173 603.903C570.497 602.27 570.331 600.577 569.694 599.039C569.057 597.501 567.978 596.187 566.594 595.262C565.209 594.337 563.582 593.843 561.917 593.843C560.812 593.843 559.717 594.061 558.696 594.484C557.675 594.907 556.747 595.527 555.965 596.309C555.184 597.09 554.564 598.018 554.141 599.039C553.718 600.061 553.5 601.155 553.5 602.26Z" fill="#313138"/>
<path d="M280.516 28.7444C280.516 30.4091 281.009 32.0365 281.934 33.4207C282.859 34.8049 284.174 35.8837 285.712 36.5208C287.25 37.1579 288.942 37.3246 290.575 36.9998C292.208 36.675 293.708 35.8734 294.885 34.6962C296.062 33.519 296.864 32.0192 297.188 30.3865C297.513 28.7537 297.346 27.0613 296.709 25.5232C296.072 23.9852 294.993 22.6706 293.609 21.7457C292.225 20.8208 290.598 20.3271 288.933 20.3271C286.7 20.3271 284.56 21.2139 282.981 22.7925C281.402 24.371 280.516 26.512 280.516 28.7444Z" fill="#313138"/>
<path d="M361.092 358.659C361.092 360.324 361.585 361.952 362.51 363.336C363.435 364.72 364.75 365.799 366.288 366.436C367.826 367.073 369.518 367.24 371.151 366.915C372.784 366.59 374.284 365.788 375.461 364.611C376.638 363.434 377.44 361.934 377.765 360.301C378.089 358.669 377.923 356.976 377.285 355.438C376.648 353.9 375.57 352.586 374.185 351.661C372.801 350.736 371.174 350.242 369.509 350.242C367.277 350.242 365.136 351.129 363.557 352.708C361.979 354.286 361.092 356.427 361.092 358.659Z" fill="#313138"/>
<path d="M51.2188 41.9714C51.2188 43.6362 51.7124 45.2637 52.6374 46.6479C53.5623 48.0322 54.877 49.111 56.4152 49.748C57.9533 50.3851 59.6458 50.5517 61.2786 50.2268C62.9114 49.9019 64.4113 49.1 65.5884 47.9227C66.7655 46.7454 67.567 45.2454 67.8916 43.6126C68.2162 41.9797 68.0492 40.2872 67.4119 38.7492C66.7746 37.2112 65.6956 35.8967 64.3112 34.972C62.9268 34.0473 61.2992 33.5539 59.6344 33.5542C58.5291 33.5542 57.4346 33.7719 56.4135 34.195C55.3923 34.618 54.4645 35.238 53.6831 36.0196C52.9016 36.8013 52.2818 37.7292 51.8589 38.7504C51.4361 39.7716 51.2185 40.8661 51.2188 41.9714Z" fill="#313138"/>
<path d="M195.42 225.428C195.42 227.093 195.914 228.72 196.838 230.105C197.763 231.489 199.078 232.568 200.616 233.205C202.154 233.842 203.846 234.008 205.479 233.684C207.112 233.359 208.612 232.557 209.789 231.38C210.966 230.203 211.768 228.703 212.093 227.07C212.417 225.438 212.251 223.745 211.614 222.207C210.976 220.669 209.898 219.354 208.513 218.43C207.129 217.505 205.502 217.011 203.837 217.011C202.732 217.011 201.637 217.229 200.616 217.652C199.595 218.075 198.667 218.695 197.885 219.476C197.104 220.258 196.484 221.186 196.061 222.207C195.638 223.228 195.42 224.323 195.42 225.428Z" fill="#313138"/>
<path d="M92.623 594.102C92.623 595.767 93.1168 597.395 94.0418 598.779C94.9667 600.163 96.2813 601.242 97.8195 601.879C99.3576 602.516 101.05 602.682 102.683 602.358C104.316 602.033 105.816 601.231 106.993 600.054C108.17 598.876 108.971 597.376 109.296 595.743C109.621 594.111 109.454 592.418 108.816 590.88C108.179 589.342 107.1 588.028 105.715 587.103C104.331 586.178 102.704 585.685 101.039 585.685C99.9334 585.685 98.8389 585.903 97.8178 586.326C96.7966 586.749 95.8688 587.369 95.0873 588.151C94.3059 588.932 93.6861 589.86 93.2632 590.881C92.8404 591.902 92.6228 592.997 92.623 594.102Z" fill="#313138"/>
<path d="M1255.19 610.678C1255.19 612.343 1255.68 613.97 1256.61 615.354C1257.53 616.738 1258.85 617.817 1260.38 618.454C1261.92 619.092 1263.61 619.258 1265.25 618.933C1266.88 618.609 1268.38 617.807 1269.56 616.63C1270.73 615.453 1271.54 613.953 1271.86 612.32C1272.18 610.687 1272.02 608.995 1271.38 607.457C1270.74 605.919 1269.67 604.604 1268.28 603.679C1266.9 602.754 1265.27 602.261 1263.6 602.261C1262.5 602.261 1261.4 602.478 1260.38 602.901C1259.36 603.324 1258.43 603.944 1257.65 604.726C1256.87 605.508 1256.25 606.436 1255.83 607.457C1255.41 608.478 1255.19 609.573 1255.19 610.678Z" fill="#313138"/>
<path d="M1200.17 242.042C1200.17 243.023 1200.46 243.982 1201.01 244.797C1201.55 245.612 1202.33 246.248 1203.23 246.623C1204.14 246.998 1205.14 247.096 1206.1 246.905C1207.06 246.713 1207.94 246.241 1208.64 245.548C1209.33 244.854 1209.8 243.971 1209.99 243.009C1210.18 242.047 1210.09 241.05 1209.71 240.144C1209.34 239.237 1208.7 238.463 1207.89 237.918C1207.07 237.373 1206.11 237.082 1205.13 237.081C1203.82 237.081 1202.55 237.604 1201.62 238.534C1200.69 239.465 1200.17 240.727 1200.17 242.042Z" fill="#313138"/>
<path d="M1188.29 397.141C1188.29 398.122 1188.58 399.081 1189.13 399.896C1189.67 400.711 1190.45 401.347 1191.36 401.722C1192.26 402.097 1193.26 402.195 1194.22 402.004C1195.18 401.812 1196.07 401.34 1196.76 400.647C1197.45 399.953 1197.93 399.069 1198.12 398.108C1198.31 397.146 1198.21 396.149 1197.83 395.242C1197.46 394.336 1196.82 393.562 1196.01 393.017C1195.19 392.472 1194.23 392.18 1193.25 392.18C1191.94 392.18 1190.68 392.703 1189.75 393.633C1188.82 394.564 1188.29 395.825 1188.29 397.141Z" fill="#313138"/>
<path d="M1042.63 658.997C1042.64 659.978 1042.93 660.937 1043.47 661.752C1044.02 662.567 1044.79 663.203 1045.7 663.578C1046.6 663.953 1047.6 664.051 1048.56 663.86C1049.52 663.668 1050.41 663.196 1051.1 662.503C1051.79 661.809 1052.27 660.925 1052.46 659.964C1052.65 659.002 1052.55 658.005 1052.18 657.098C1051.8 656.192 1051.17 655.418 1050.35 654.873C1049.54 654.328 1048.58 654.036 1047.6 654.036C1046.94 654.036 1046.3 654.165 1045.7 654.414C1045.1 654.663 1044.55 655.029 1044.09 655.489C1043.63 655.95 1043.26 656.497 1043.01 657.099C1042.76 657.701 1042.63 658.346 1042.63 658.997Z" fill="#313138"/>
<path d="M1245.32 97.2889C1245.32 98.2697 1245.61 99.2283 1246.16 100.044C1246.7 100.859 1247.48 101.494 1248.38 101.87C1249.29 102.245 1250.29 102.343 1251.25 102.151C1252.21 101.96 1253.09 101.488 1253.79 100.794C1254.48 100.101 1254.95 99.2172 1255.14 98.2553C1255.34 97.2934 1255.24 96.2963 1254.86 95.3902C1254.49 94.484 1253.85 93.7094 1253.04 93.1643C1252.22 92.6193 1251.26 92.3282 1250.28 92.3279C1249.63 92.3279 1248.99 92.4562 1248.38 92.7055C1247.78 92.9548 1247.23 93.3202 1246.77 93.7809C1246.31 94.2416 1245.95 94.7885 1245.7 95.3904C1245.45 95.9923 1245.32 96.6374 1245.32 97.2889Z" fill="#313138"/>
<path d="M924.254 190.228C924.254 191.209 924.545 192.167 925.09 192.983C925.635 193.798 926.41 194.433 927.316 194.809C928.222 195.184 929.219 195.282 930.181 195.09C931.143 194.899 932.027 194.427 932.72 193.733C933.414 193.04 933.886 192.156 934.077 191.194C934.269 190.232 934.171 189.235 933.796 188.329C933.42 187.423 932.785 186.648 931.97 186.103C931.154 185.558 930.196 185.267 929.215 185.267C928.563 185.267 927.918 185.395 927.316 185.644C926.714 185.894 926.168 186.259 925.707 186.72C925.246 187.181 924.881 187.727 924.632 188.329C924.382 188.931 924.254 189.576 924.254 190.228Z" fill="#313138"/>
<path d="M674.405 725.888C674.406 726.869 674.697 727.828 675.242 728.643C675.787 729.458 676.561 730.094 677.468 730.469C678.374 730.844 679.371 730.942 680.333 730.751C681.294 730.559 682.178 730.087 682.872 729.394C683.565 728.7 684.038 727.817 684.229 726.855C684.42 725.893 684.322 724.896 683.947 723.99C683.572 723.083 682.936 722.309 682.121 721.764C681.306 721.219 680.347 720.928 679.366 720.927C678.051 720.927 676.789 721.45 675.858 722.38C674.928 723.311 674.405 724.572 674.405 725.888Z" fill="#313138"/>
<path d="M838.955 415.413C838.955 416.394 839.246 417.353 839.791 418.168C840.337 418.983 841.111 419.619 842.017 419.994C842.924 420.369 843.921 420.467 844.882 420.276C845.844 420.084 846.728 419.612 847.421 418.919C848.115 418.225 848.587 417.341 848.779 416.38C848.97 415.418 848.872 414.421 848.497 413.514C848.122 412.608 847.486 411.834 846.671 411.289C845.855 410.744 844.897 410.452 843.916 410.452C842.6 410.452 841.338 410.975 840.408 411.905C839.478 412.836 838.955 414.097 838.955 415.413Z" fill="#313138"/>
<path d="M338.965 502.515C338.965 503.496 339.256 504.455 339.801 505.27C340.346 506.085 341.121 506.721 342.027 507.096C342.933 507.471 343.93 507.569 344.892 507.378C345.854 507.186 346.738 506.714 347.431 506.021C348.125 505.327 348.597 504.443 348.788 503.482C348.98 502.52 348.882 501.523 348.507 500.616C348.131 499.71 347.496 498.936 346.681 498.391C345.865 497.846 344.907 497.555 343.926 497.554C342.61 497.554 341.348 498.077 340.418 499.007C339.487 499.938 338.965 501.199 338.965 502.515Z" fill="#313138"/>
<path d="M415.798 300.571C415.798 301.552 416.089 302.511 416.634 303.326C417.179 304.141 417.954 304.777 418.86 305.152C419.766 305.527 420.763 305.625 421.725 305.434C422.687 305.243 423.571 304.77 424.264 304.077C424.958 303.383 425.43 302.5 425.621 301.538C425.813 300.576 425.715 299.579 425.34 298.673C424.964 297.766 424.329 296.992 423.514 296.447C422.698 295.902 421.74 295.611 420.759 295.61C419.443 295.61 418.181 296.133 417.251 297.063C416.32 297.994 415.798 299.256 415.798 300.571Z" fill="#313138"/>
<path d="M24.3779 425.277C24.3782 426.258 24.6693 427.217 25.2144 428.032C25.7595 428.847 26.534 429.483 27.4402 429.858C28.3464 430.233 29.3434 430.331 30.3052 430.14C31.2671 429.948 32.1507 429.476 32.8442 428.783C33.5377 428.089 34.0101 427.205 34.2015 426.244C34.3929 425.282 34.2948 424.285 33.9197 423.378C33.5445 422.472 32.909 421.698 32.0936 421.153C31.2783 420.608 30.3197 420.316 29.3389 420.316C28.0232 420.316 26.7613 420.839 25.8309 421.769C24.9006 422.7 24.3779 423.961 24.3779 425.277Z" fill="#313138"/>
<path d="M1140.19 495.756C1140.19 496.737 1140.48 497.695 1141.03 498.511C1141.57 499.326 1142.35 499.961 1143.25 500.337C1144.16 500.712 1145.15 500.81 1146.12 500.618C1147.08 500.427 1147.96 499.955 1148.66 499.261C1149.35 498.568 1149.82 497.684 1150.01 496.722C1150.2 495.76 1150.11 494.763 1149.73 493.857C1149.36 492.951 1148.72 492.176 1147.91 491.631C1147.09 491.086 1146.13 490.795 1145.15 490.795C1143.83 490.795 1142.57 491.318 1141.64 492.248C1140.71 493.178 1140.19 494.44 1140.19 495.756Z" fill="#313138"/>
<path d="M1169.61 499.759C1169.61 500.428 1169.8 501.082 1170.18 501.638C1170.55 502.194 1171.08 502.628 1171.69 502.884C1172.31 503.14 1172.99 503.207 1173.65 503.076C1174.3 502.946 1174.91 502.624 1175.38 502.151C1175.85 501.677 1176.18 501.075 1176.31 500.418C1176.44 499.762 1176.37 499.082 1176.11 498.464C1175.86 497.846 1175.42 497.318 1174.87 496.946C1174.31 496.574 1173.66 496.376 1172.99 496.376C1172.09 496.376 1171.23 496.732 1170.6 497.367C1169.96 498.001 1169.61 498.861 1169.61 499.759Z" fill="#313138"/>
<path d="M1206.71 592.353C1206.71 593.022 1206.91 593.676 1207.28 594.232C1207.65 594.788 1208.18 595.222 1208.8 595.478C1209.41 595.734 1210.09 595.801 1210.75 595.67C1211.41 595.54 1212.01 595.218 1212.48 594.745C1212.96 594.271 1213.28 593.669 1213.41 593.012C1213.54 592.356 1213.47 591.676 1213.22 591.058C1212.96 590.44 1212.53 589.911 1211.97 589.54C1211.41 589.168 1210.76 588.97 1210.09 588.97C1209.19 588.97 1208.33 589.326 1207.7 589.961C1207.06 590.595 1206.71 591.455 1206.71 592.353Z" fill="#313138"/>
<path d="M1318.55 92.3296C1318.55 92.9986 1318.74 93.6527 1319.12 94.209C1319.49 94.7653 1320.02 95.1988 1320.63 95.4549C1321.25 95.7109 1321.93 95.7779 1322.59 95.6474C1323.24 95.5169 1323.85 95.1947 1324.32 94.7216C1324.79 94.2485 1325.12 93.6457 1325.25 92.9895C1325.38 92.3333 1325.31 91.6532 1325.05 91.035C1324.8 90.4169 1324.36 89.8886 1323.81 89.5169C1323.25 89.1452 1322.6 88.9468 1321.93 88.9468C1321.03 88.9468 1320.17 89.3032 1319.54 89.9376C1318.9 90.572 1318.55 91.4324 1318.55 92.3296Z" fill="#313138"/>
<path d="M1352.22 25.2866C1352.22 25.9557 1352.42 26.6097 1352.79 27.166C1353.16 27.7223 1353.69 28.1559 1354.31 28.4119C1354.93 28.668 1355.61 28.7349 1356.26 28.6044C1356.92 28.4739 1357.52 28.1517 1357.99 27.6786C1358.47 27.2055 1358.79 26.6028 1358.92 25.9466C1359.05 25.2904 1358.98 24.6102 1358.73 23.9921C1358.47 23.3739 1358.04 22.8456 1357.48 22.4739C1356.92 22.1022 1356.27 21.9038 1355.6 21.9038C1354.7 21.9038 1353.84 22.2602 1353.21 22.8946C1352.58 23.529 1352.22 24.3894 1352.22 25.2866Z" fill="#313138"/>
<path d="M894.011 491.385C894.011 492.054 894.209 492.708 894.581 493.264C894.953 493.821 895.481 494.254 896.099 494.51C896.717 494.766 897.397 494.833 898.054 494.703C898.71 494.572 899.313 494.25 899.786 493.777C900.259 493.304 900.581 492.701 900.711 492.045C900.842 491.389 900.775 490.709 900.519 490.09C900.263 489.472 899.829 488.944 899.273 488.572C898.717 488.201 898.063 488.002 897.394 488.002C896.496 488.002 895.636 488.359 895.002 488.993C894.367 489.627 894.011 490.488 894.011 491.385Z" fill="#313138"/>
<path d="M869.395 844.121C869.395 844.79 869.593 845.443 869.965 845.999C870.337 846.555 870.865 846.988 871.482 847.244C872.1 847.499 872.78 847.566 873.436 847.436C874.091 847.305 874.694 846.983 875.167 846.51C875.639 846.038 875.961 845.435 876.092 844.78C876.222 844.124 876.156 843.444 875.9 842.826C875.644 842.208 875.211 841.68 874.655 841.309C874.099 840.937 873.446 840.739 872.777 840.738C872.333 840.738 871.893 840.826 871.483 840.996C871.072 841.166 870.699 841.415 870.385 841.729C870.071 842.043 869.822 842.416 869.652 842.827C869.482 843.237 869.395 843.677 869.395 844.121Z" fill="#313138"/>
<path d="M994.752 899.803C994.752 900.472 994.95 901.126 995.322 901.682C995.694 902.238 996.222 902.672 996.84 902.928C997.458 903.184 998.138 903.251 998.795 903.121C999.451 902.99 1000.05 902.668 1000.53 902.195C1001 901.722 1001.32 901.119 1001.45 900.463C1001.58 899.806 1001.52 899.126 1001.26 898.508C1001 897.89 1000.57 897.362 1000.01 896.99C999.458 896.618 998.804 896.42 998.135 896.42C997.238 896.42 996.377 896.776 995.743 897.411C995.108 898.045 994.752 898.906 994.752 899.803Z" fill="#313138"/>
<path d="M1368.45 435.623C1368.45 436.292 1368.65 436.946 1369.02 437.502C1369.39 438.058 1369.92 438.492 1370.54 438.748C1371.16 439.004 1371.84 439.071 1372.49 438.94C1373.15 438.81 1373.75 438.488 1374.23 438.015C1374.7 437.541 1375.02 436.939 1375.15 436.283C1375.28 435.626 1375.21 434.946 1374.96 434.328C1374.7 433.71 1374.27 433.182 1373.71 432.81C1373.16 432.438 1372.5 432.24 1371.83 432.24C1370.94 432.24 1370.08 432.596 1369.44 433.231C1368.81 433.865 1368.45 434.725 1368.45 435.623Z" fill="#313138"/>
<path d="M1311.52 276.723C1311.52 277.392 1311.72 278.046 1312.09 278.602C1312.46 279.158 1312.99 279.592 1313.61 279.848C1314.22 280.104 1314.9 280.171 1315.56 280.04C1316.22 279.91 1316.82 279.588 1317.29 279.115C1317.77 278.642 1318.09 278.039 1318.22 277.383C1318.35 276.726 1318.28 276.046 1318.03 275.428C1317.77 274.81 1317.34 274.282 1316.78 273.91C1316.22 273.538 1315.57 273.34 1314.9 273.34C1314 273.34 1313.14 273.696 1312.51 274.331C1311.87 274.965 1311.52 275.825 1311.52 276.723Z" fill="#313138"/>
<path d="M1268.64 322.841C1268.64 323.51 1268.84 324.164 1269.21 324.72C1269.58 325.277 1270.11 325.71 1270.73 325.966C1271.35 326.222 1272.03 326.289 1272.68 326.159C1273.34 326.028 1273.94 325.706 1274.42 325.233C1274.89 324.76 1275.21 324.157 1275.34 323.501C1275.47 322.845 1275.4 322.165 1275.15 321.546C1274.89 320.928 1274.46 320.4 1273.9 320.028C1273.35 319.657 1272.69 319.458 1272.02 319.458C1271.13 319.458 1270.27 319.815 1269.63 320.449C1269 321.083 1268.64 321.944 1268.64 322.841Z" fill="#313138"/>
<path d="M1241.94 286.643C1241.94 287.312 1242.14 287.965 1242.51 288.521C1242.88 289.077 1243.41 289.51 1244.03 289.766C1244.65 290.022 1245.33 290.088 1245.98 289.958C1246.64 289.827 1247.24 289.505 1247.71 289.033C1248.18 288.56 1248.51 287.958 1248.64 287.302C1248.77 286.646 1248.7 285.966 1248.44 285.349C1248.19 284.731 1247.76 284.203 1247.2 283.831C1246.64 283.459 1245.99 283.261 1245.32 283.26C1244.43 283.261 1243.57 283.617 1242.93 284.252C1242.3 284.886 1241.94 285.746 1241.94 286.643Z" fill="#313138"/>
<path d="M1375.07 822.694C1375.07 823.363 1375.26 824.017 1375.64 824.574C1376.01 825.13 1376.54 825.564 1377.15 825.82C1377.77 826.076 1378.45 826.143 1379.11 826.012C1379.76 825.882 1380.37 825.559 1380.84 825.086C1381.31 824.613 1381.64 824.011 1381.77 823.354C1381.9 822.698 1381.83 822.018 1381.57 821.4C1381.32 820.782 1380.88 820.253 1380.33 819.882C1379.77 819.51 1379.12 819.312 1378.45 819.312C1377.55 819.312 1376.69 819.668 1376.06 820.302C1375.42 820.937 1375.07 821.797 1375.07 822.694Z" fill="#313138"/>
<path d="M1294.67 233.845C1294.67 234.514 1294.87 235.168 1295.24 235.723C1295.61 236.279 1296.14 236.712 1296.76 236.968C1297.37 237.224 1298.05 237.291 1298.71 237.16C1299.36 237.03 1299.97 236.708 1300.44 236.235C1300.91 235.762 1301.23 235.16 1301.37 234.504C1301.5 233.848 1301.43 233.168 1301.17 232.551C1300.92 231.933 1300.48 231.405 1299.93 231.033C1299.37 230.661 1298.72 230.463 1298.05 230.463C1297.15 230.463 1296.29 230.819 1295.66 231.453C1295.02 232.088 1294.67 232.948 1294.67 233.845Z" fill="#313138"/>
<path d="M1233.55 225.428C1233.55 226.098 1233.75 226.752 1234.12 227.308C1234.5 227.864 1235.02 228.298 1235.64 228.554C1236.26 228.81 1236.94 228.877 1237.6 228.746C1238.25 228.616 1238.86 228.294 1239.33 227.82C1239.8 227.347 1240.12 226.745 1240.25 226.088C1240.38 225.432 1240.32 224.752 1240.06 224.134C1239.81 223.516 1239.37 222.987 1238.82 222.616C1238.26 222.244 1237.61 222.046 1236.94 222.046C1236.04 222.046 1235.18 222.402 1234.54 223.036C1233.91 223.671 1233.55 224.531 1233.55 225.428Z" fill="#313138"/>
<path d="M1475.85 674.778C1475.85 675.447 1476.05 676.101 1476.42 676.657C1476.8 677.213 1477.32 677.647 1477.94 677.903C1478.56 678.159 1479.24 678.226 1479.9 678.095C1480.55 677.965 1481.16 677.643 1481.63 677.17C1482.1 676.697 1482.42 676.094 1482.55 675.438C1482.68 674.781 1482.62 674.101 1482.36 673.483C1482.11 672.865 1481.67 672.337 1481.12 671.965C1480.56 671.593 1479.91 671.395 1479.24 671.395C1478.34 671.395 1477.48 671.751 1476.84 672.386C1476.21 673.02 1475.85 673.88 1475.85 674.778Z" fill="#313138"/>
<path d="M1390.7 602.261C1390.7 602.93 1390.9 603.584 1391.27 604.14C1391.64 604.696 1392.17 605.13 1392.79 605.386C1393.4 605.642 1394.08 605.709 1394.74 605.579C1395.4 605.448 1396 605.126 1396.47 604.653C1396.95 604.18 1397.27 603.577 1397.4 602.921C1397.53 602.265 1397.46 601.584 1397.21 600.966C1396.95 600.348 1396.52 599.82 1395.96 599.448C1395.4 599.076 1394.75 598.878 1394.08 598.878C1393.64 598.878 1393.2 598.965 1392.79 599.135C1392.38 599.305 1392 599.555 1391.69 599.869C1391.37 600.183 1391.13 600.556 1390.96 600.966C1390.79 601.377 1390.7 601.816 1390.7 602.261Z" fill="#313138"/>
<path d="M1085.85 164.015C1085.85 164.684 1086.05 165.337 1086.42 165.893C1086.79 166.449 1087.32 166.882 1087.94 167.137C1088.56 167.393 1089.24 167.46 1089.89 167.33C1090.55 167.199 1091.15 166.877 1091.62 166.404C1092.1 165.931 1092.42 165.329 1092.55 164.673C1092.68 164.018 1092.61 163.338 1092.36 162.72C1092.1 162.102 1091.67 161.574 1091.11 161.203C1090.56 160.831 1089.9 160.632 1089.24 160.632C1088.34 160.632 1087.48 160.988 1086.84 161.623C1086.21 162.257 1085.85 163.118 1085.85 164.015Z" fill="#313138"/>
<path d="M846.254 541.4C846.254 542.069 846.452 542.723 846.824 543.279C847.196 543.835 847.724 544.269 848.342 544.525C848.96 544.781 849.641 544.848 850.297 544.717C850.953 544.587 851.556 544.265 852.029 543.792C852.502 543.319 852.824 542.716 852.955 542.06C853.085 541.403 853.018 540.723 852.762 540.105C852.506 539.487 852.072 538.959 851.516 538.587C850.96 538.215 850.306 538.017 849.637 538.017C848.74 538.017 847.879 538.373 847.245 539.008C846.61 539.642 846.254 540.502 846.254 541.4Z" fill="#313138"/>
<path d="M745.737 773.389C745.737 774.058 745.936 774.712 746.307 775.269C746.679 775.825 747.207 776.258 747.825 776.514C748.444 776.77 749.124 776.837 749.78 776.707C750.436 776.576 751.039 776.254 751.512 775.781C751.985 775.308 752.307 774.705 752.438 774.049C752.568 773.393 752.501 772.713 752.245 772.095C751.989 771.476 751.556 770.948 750.999 770.576C750.443 770.205 749.789 770.006 749.12 770.006C748.223 770.006 747.362 770.363 746.728 770.997C746.094 771.632 745.737 772.492 745.737 773.389Z" fill="#313138"/>
<path d="M463.901 679.737C463.901 680.406 464.1 681.06 464.472 681.617C464.843 682.173 465.371 682.607 465.99 682.863C466.608 683.119 467.288 683.186 467.944 683.055C468.6 682.925 469.203 682.602 469.676 682.129C470.149 681.656 470.471 681.053 470.602 680.397C470.732 679.741 470.666 679.061 470.41 678.443C470.153 677.825 469.72 677.296 469.164 676.925C468.607 676.553 467.953 676.354 467.284 676.354C466.387 676.354 465.527 676.711 464.892 677.345C464.258 677.98 463.901 678.84 463.901 679.737Z" fill="#313138"/>
<path d="M600.033 473.848C600.034 474.517 600.232 475.17 600.604 475.726C600.975 476.282 601.503 476.715 602.121 476.971C602.739 477.226 603.419 477.293 604.074 477.163C604.73 477.032 605.333 476.71 605.805 476.237C606.278 475.765 606.6 475.162 606.731 474.507C606.861 473.851 606.794 473.171 606.539 472.553C606.283 471.936 605.85 471.408 605.294 471.036C604.738 470.664 604.085 470.466 603.416 470.465C602.519 470.465 601.658 470.822 601.024 471.456C600.39 472.091 600.033 472.951 600.033 473.848Z" fill="#313138"/>
<path d="M662.649 602.261C662.65 602.929 662.848 603.583 663.22 604.139C663.592 604.694 664.12 605.128 664.737 605.383C665.355 605.639 666.035 605.706 666.691 605.575C667.346 605.445 667.949 605.123 668.422 604.65C668.894 604.177 669.216 603.575 669.347 602.919C669.477 602.263 669.411 601.584 669.155 600.966C668.899 600.348 668.466 599.82 667.91 599.448C667.354 599.077 666.701 598.878 666.032 598.878C665.588 598.878 665.148 598.965 664.738 599.135C664.327 599.305 663.954 599.555 663.64 599.869C663.326 600.183 663.077 600.556 662.907 600.966C662.737 601.377 662.649 601.816 662.649 602.261Z" fill="#313138"/>
<path d="M420.757 560.195C420.757 560.864 420.955 561.518 421.327 562.074C421.699 562.63 422.227 563.064 422.845 563.32C423.463 563.576 424.143 563.643 424.8 563.513C425.456 563.382 426.059 563.06 426.532 562.587C427.005 562.114 427.327 561.511 427.457 560.855C427.588 560.199 427.521 559.518 427.265 558.9C427.009 558.282 426.575 557.754 426.019 557.382C425.463 557.01 424.809 556.812 424.14 556.812C423.243 556.812 422.382 557.169 421.748 557.803C421.114 558.438 420.757 559.298 420.757 560.195Z" fill="#313138"/>
<path d="M703.704 602.532C703.704 603.201 703.902 603.855 704.274 604.412C704.646 604.968 705.174 605.402 705.792 605.658C706.41 605.914 707.091 605.981 707.747 605.85C708.403 605.719 709.006 605.397 709.479 604.924C709.952 604.451 710.274 603.848 710.405 603.192C710.535 602.536 710.468 601.856 710.212 601.238C709.956 600.62 709.522 600.091 708.966 599.719C708.41 599.348 707.756 599.149 707.087 599.149C706.643 599.149 706.203 599.237 705.792 599.407C705.382 599.577 705.009 599.826 704.695 600.14C704.381 600.454 704.132 600.827 703.962 601.238C703.792 601.648 703.704 602.088 703.704 602.532Z" fill="#313138"/>
<path d="M268.721 577.005C268.721 577.674 268.919 578.328 269.291 578.885C269.662 579.441 270.191 579.875 270.809 580.131C271.427 580.387 272.107 580.454 272.763 580.323C273.42 580.193 274.022 579.87 274.495 579.397C274.969 578.924 275.291 578.322 275.421 577.665C275.552 577.009 275.485 576.329 275.229 575.711C274.973 575.093 274.539 574.564 273.983 574.193C273.427 573.821 272.773 573.623 272.103 573.623C271.206 573.623 270.346 573.979 269.712 574.613C269.077 575.248 268.721 576.108 268.721 577.005Z" fill="#313138"/>
<path d="M265.338 397.141C265.338 397.81 265.536 398.464 265.908 399.02C266.28 399.577 266.808 400.01 267.426 400.266C268.044 400.522 268.724 400.589 269.381 400.459C270.037 400.328 270.64 400.006 271.113 399.533C271.586 399.06 271.908 398.457 272.038 397.801C272.169 397.145 272.102 396.464 271.846 395.846C271.59 395.228 271.156 394.7 270.6 394.328C270.044 393.956 269.39 393.758 268.721 393.758C268.276 393.758 267.837 393.846 267.426 394.016C267.016 394.186 266.643 394.435 266.329 394.749C266.015 395.063 265.765 395.436 265.595 395.846C265.425 396.257 265.338 396.697 265.338 397.141Z" fill="#313138"/>
<path d="M251.188 185.262C251.188 185.931 251.386 186.585 251.758 187.141C252.129 187.698 252.658 188.131 253.276 188.387C253.894 188.643 254.574 188.71 255.23 188.58C255.886 188.449 256.489 188.127 256.962 187.654C257.435 187.181 257.758 186.578 257.888 185.922C258.019 185.266 257.952 184.586 257.696 183.967C257.44 183.349 257.006 182.821 256.45 182.449C255.893 182.078 255.239 181.879 254.57 181.879C253.673 181.879 252.813 182.236 252.178 182.87C251.544 183.504 251.188 184.365 251.188 185.262Z" fill="#313138"/>
<path d="M438.651 367.078C438.651 367.747 438.85 368.401 439.221 368.958C439.593 369.514 440.121 369.947 440.74 370.203C441.358 370.459 442.038 370.526 442.694 370.396C443.35 370.265 443.953 369.943 444.426 369.47C444.899 368.997 445.221 368.394 445.352 367.738C445.482 367.082 445.415 366.402 445.159 365.784C444.903 365.165 444.47 364.637 443.914 364.265C443.357 363.894 442.703 363.695 442.034 363.695C441.137 363.695 440.277 364.052 439.642 364.686C439.008 365.321 438.651 366.181 438.651 367.078Z" fill="#313138"/>
<path d="M117.5 164.015C117.5 164.684 117.698 165.338 118.07 165.894C118.442 166.451 118.97 166.884 119.588 167.14C120.206 167.396 120.887 167.463 121.543 167.333C122.199 167.202 122.802 166.88 123.275 166.407C123.748 165.934 124.07 165.331 124.201 164.675C124.331 164.019 124.264 163.338 124.008 162.72C123.752 162.102 123.319 161.574 122.762 161.202C122.206 160.83 121.552 160.632 120.883 160.632C119.986 160.632 119.125 160.988 118.491 161.623C117.856 162.257 117.5 163.118 117.5 164.015Z" fill="#313138"/>
<path d="M143.992 378.352C143.992 379.021 144.191 379.675 144.562 380.232C144.934 380.788 145.462 381.222 146.081 381.478C146.699 381.734 147.379 381.801 148.035 381.67C148.691 381.54 149.294 381.217 149.767 380.744C150.24 380.271 150.562 379.668 150.693 379.012C150.823 378.356 150.756 377.676 150.5 377.058C150.244 376.44 149.811 375.911 149.254 375.54C148.698 375.168 148.044 374.969 147.375 374.969C146.931 374.969 146.491 375.057 146.081 375.227C145.67 375.397 145.297 375.646 144.983 375.96C144.669 376.274 144.42 376.647 144.25 377.058C144.08 377.468 143.992 377.908 143.992 378.352Z" fill="#313138"/>
<path d="M332.455 102.25C332.455 102.919 332.653 103.573 333.025 104.129C333.397 104.685 333.925 105.119 334.543 105.375C335.161 105.631 335.842 105.698 336.498 105.568C337.154 105.437 337.757 105.115 338.23 104.642C338.703 104.169 339.025 103.566 339.156 102.91C339.286 102.253 339.219 101.573 338.963 100.955C338.707 100.337 338.274 99.8088 337.717 99.437C337.161 99.0653 336.507 98.8669 335.838 98.8669C334.941 98.8669 334.08 99.2233 333.446 99.8577C332.811 100.492 332.455 101.353 332.455 102.25Z" fill="#313138"/>
<path d="M0.569336 92.3296C0.569336 92.9986 0.767684 93.6527 1.13939 94.209C1.5111 94.7653 2.03944 95.1988 2.65757 95.4549C3.2757 95.7109 3.95593 95.7779 4.61213 95.6474C5.26833 95.5169 5.87102 95.1947 6.34411 94.7216C6.81721 94.2485 7.13941 93.6457 7.26994 92.9895C7.40047 92.3333 7.33351 91.6532 7.07748 91.035C6.82144 90.4169 6.38781 89.8886 5.83151 89.5169C5.27521 89.1452 4.62118 88.9468 3.95213 88.9468C3.05495 88.9468 2.19454 89.3032 1.56014 89.9376C0.925745 90.572 0.569336 91.4324 0.569336 92.3296Z" fill="#313138"/>
<path d="M170.438 61.3301C170.438 61.9991 170.637 62.6531 171.009 63.2094C171.38 63.7657 171.909 64.1993 172.527 64.4554C173.145 64.7114 173.825 64.7784 174.481 64.6479C175.137 64.5173 175.74 64.1952 176.213 63.7221C176.686 63.249 177.009 62.6462 177.139 61.99C177.27 61.3338 177.203 60.6537 176.947 60.0355C176.69 59.4174 176.257 58.8891 175.701 58.5174C175.144 58.1457 174.49 57.9473 173.821 57.9473C172.924 57.9473 172.064 58.3037 171.429 58.9381C170.795 59.5724 170.438 60.4329 170.438 61.3301Z" fill="#313138"/>
<path d="M450.999 105.708C450.999 106.377 451.197 107.031 451.569 107.587C451.941 108.143 452.469 108.577 453.087 108.833C453.705 109.089 454.386 109.156 455.042 109.026C455.698 108.895 456.301 108.573 456.774 108.1C457.247 107.627 457.569 107.024 457.7 106.368C457.83 105.712 457.763 105.031 457.507 104.413C457.251 103.795 456.817 103.267 456.261 102.895C455.705 102.523 455.051 102.325 454.382 102.325C453.938 102.325 453.498 102.412 453.087 102.582C452.677 102.752 452.304 103.002 451.99 103.316C451.676 103.63 451.427 104.003 451.257 104.413C451.087 104.824 450.999 105.264 450.999 105.708Z" fill="#313138"/>
<path d="M167.059 305.532C167.059 306.201 167.257 306.855 167.629 307.412C168 307.968 168.529 308.401 169.147 308.658C169.765 308.914 170.445 308.981 171.101 308.85C171.758 308.719 172.36 308.397 172.833 307.924C173.306 307.451 173.629 306.848 173.759 306.192C173.89 305.536 173.823 304.856 173.567 304.238C173.311 303.62 172.877 303.091 172.321 302.72C171.764 302.348 171.11 302.149 170.441 302.149C169.544 302.149 168.684 302.506 168.049 303.14C167.415 303.775 167.059 304.635 167.059 305.532Z" fill="#313138"/>
<path d="M834.411 167.864C834.411 168.534 834.61 169.188 834.981 169.744C835.353 170.3 835.881 170.734 836.499 170.99C837.117 171.246 837.798 171.313 838.454 171.182C839.11 171.052 839.713 170.73 840.186 170.256C840.659 169.783 840.981 169.181 841.112 168.524C841.242 167.868 841.175 167.188 840.919 166.57C840.663 165.952 840.23 165.424 839.673 165.052C839.117 164.68 838.463 164.482 837.794 164.482C836.897 164.482 836.036 164.838 835.402 165.472C834.767 166.107 834.411 166.967 834.411 167.864Z" fill="#313138"/>
<path d="M7.0498 563.578C7.0498 564.247 7.24815 564.901 7.61986 565.457C7.99157 566.013 8.51991 566.447 9.13804 566.703C9.75617 566.959 10.4364 567.026 11.0926 566.895C11.7488 566.765 12.3515 566.443 12.8246 565.97C13.2977 565.497 13.6199 564.894 13.7504 564.238C13.8809 563.581 13.814 562.901 13.5579 562.283C13.3019 561.665 12.8683 561.137 12.312 560.765C11.7557 560.393 11.1017 560.195 10.4326 560.195C9.53542 560.195 8.67501 560.551 8.04061 561.186C7.40621 561.82 7.0498 562.68 7.0498 563.578Z" fill="#313138"/>
<path d="M218.401 529.421C218.401 530.09 218.6 530.744 218.972 531.301C219.343 531.857 219.871 532.291 220.49 532.547C221.108 532.803 221.788 532.87 222.444 532.739C223.1 532.609 223.703 532.286 224.176 531.813C224.649 531.34 224.971 530.738 225.102 530.081C225.232 529.425 225.166 528.745 224.91 528.127C224.653 527.509 224.22 526.98 223.664 526.609C223.107 526.237 222.453 526.039 221.784 526.039C220.887 526.039 220.027 526.395 219.392 527.029C218.758 527.664 218.401 528.524 218.401 529.421Z" fill="#313138"/>
<path d="M1070.29 902.198C1070.29 902.867 1070.49 903.521 1070.87 904.078C1071.24 904.634 1071.77 905.068 1072.38 905.324C1073 905.58 1073.68 905.647 1074.34 905.516C1074.99 905.386 1075.6 905.063 1076.07 904.59C1076.54 904.117 1076.87 903.514 1077 902.858C1077.13 902.202 1077.06 901.522 1076.8 900.904C1076.55 900.286 1076.11 899.757 1075.56 899.386C1075 899.014 1074.35 898.815 1073.68 898.815C1072.78 898.815 1071.92 899.172 1071.29 899.806C1070.65 900.441 1070.29 901.301 1070.29 902.198Z" fill="#313138"/>
<path d="M1049.18 525.063C1049.18 525.732 1049.38 526.386 1049.75 526.942C1050.12 527.499 1050.65 527.932 1051.27 528.188C1051.89 528.444 1052.57 528.511 1053.22 528.381C1053.88 528.25 1054.48 527.928 1054.95 527.455C1055.43 526.982 1055.75 526.379 1055.88 525.723C1056.01 525.067 1055.94 524.387 1055.69 523.768C1055.43 523.15 1055 522.622 1054.44 522.25C1053.89 521.879 1053.23 521.68 1052.56 521.68C1051.67 521.68 1050.8 522.037 1050.17 522.671C1049.54 523.305 1049.18 524.166 1049.18 525.063Z" fill="#313138"/>
<path d="M925.83 319.46C925.83 320.129 926.029 320.783 926.4 321.339C926.772 321.896 927.3 322.329 927.918 322.585C928.537 322.841 929.217 322.908 929.873 322.778C930.529 322.647 931.132 322.325 931.605 321.852C932.078 321.379 932.4 320.776 932.531 320.12C932.661 319.464 932.594 318.784 932.338 318.165C932.082 317.547 931.649 317.019 931.092 316.647C930.536 316.276 929.882 316.077 929.213 316.077C928.316 316.077 927.455 316.434 926.821 317.068C926.186 317.702 925.83 318.563 925.83 319.46Z" fill="#313138"/>
<path d="M788.757 658.997C788.757 659.666 788.955 660.32 789.327 660.876C789.699 661.433 790.227 661.866 790.845 662.122C791.463 662.378 792.143 662.445 792.8 662.315C793.456 662.184 794.058 661.862 794.532 661.389C795.005 660.916 795.327 660.313 795.457 659.657C795.588 659.001 795.521 658.321 795.265 657.702C795.009 657.084 794.575 656.556 794.019 656.184C793.463 655.813 792.809 655.614 792.14 655.614C791.242 655.614 790.382 655.971 789.748 656.605C789.113 657.239 788.757 658.1 788.757 658.997Z" fill="#313138"/>
<path d="M771.425 33.5542C771.425 34.2232 771.623 34.8773 771.995 35.4336C772.367 35.9899 772.895 36.4234 773.513 36.6795C774.131 36.9355 774.811 37.0025 775.468 36.872C776.124 36.7415 776.727 36.4193 777.2 35.9462C777.673 35.4731 777.995 34.8703 778.125 34.2141C778.256 33.5579 778.189 32.8778 777.933 32.2596C777.677 31.6415 777.243 31.1132 776.687 30.7415C776.131 30.3698 775.477 30.1714 774.808 30.1714C773.91 30.1714 773.05 30.5278 772.416 31.1622C771.781 31.7966 771.425 32.657 771.425 33.5542Z" fill="#313138"/>
<path d="M1238.27 1098.68C1238.27 1099.35 1238.47 1100 1238.84 1100.56C1239.21 1101.11 1239.74 1101.55 1240.35 1101.8C1240.97 1102.06 1241.65 1102.12 1242.31 1101.99C1242.96 1101.86 1243.57 1101.54 1244.04 1101.07C1244.51 1100.6 1244.83 1099.99 1244.96 1099.34C1245.09 1098.68 1245.03 1098 1244.77 1097.38C1244.52 1096.77 1244.08 1096.24 1243.53 1095.87C1242.97 1095.49 1242.32 1095.3 1241.65 1095.3C1241.21 1095.3 1240.77 1095.38 1240.35 1095.55C1239.94 1095.72 1239.57 1095.97 1239.26 1096.29C1238.94 1096.6 1238.69 1096.97 1238.52 1097.38C1238.35 1097.79 1238.27 1098.23 1238.27 1098.68Z" fill="#313138"/>
<path d="M1321.93 839.074C1321.93 839.743 1322.13 840.397 1322.5 840.954C1322.87 841.51 1323.4 841.944 1324.02 842.2C1324.64 842.456 1325.32 842.523 1325.97 842.392C1326.63 842.261 1327.23 841.939 1327.7 841.466C1328.18 840.993 1328.5 840.39 1328.63 839.734C1328.76 839.078 1328.69 838.398 1328.44 837.78C1328.18 837.162 1327.75 836.633 1327.19 836.262C1326.63 835.89 1325.98 835.691 1325.31 835.691C1324.41 835.691 1323.55 836.048 1322.92 836.682C1322.29 837.317 1321.93 838.177 1321.93 839.074Z" fill="#313138"/>
<path d="M1311.52 773.389C1311.52 774.058 1311.72 774.712 1312.09 775.269C1312.46 775.825 1312.99 776.258 1313.61 776.514C1314.22 776.77 1314.9 776.837 1315.56 776.707C1316.22 776.576 1316.82 776.254 1317.29 775.781C1317.77 775.308 1318.09 774.705 1318.22 774.049C1318.35 773.393 1318.28 772.713 1318.03 772.095C1317.77 771.476 1317.34 770.948 1316.78 770.576C1316.22 770.205 1315.57 770.006 1314.9 770.006C1314 770.006 1313.14 770.363 1312.51 770.997C1311.87 771.632 1311.52 772.492 1311.52 773.389Z" fill="#313138"/>
<path d="M1412.34 799.6C1412.34 800.269 1412.54 800.923 1412.91 801.479C1413.29 802.035 1413.81 802.469 1414.43 802.725C1415.05 802.981 1415.73 803.048 1416.39 802.917C1417.04 802.787 1417.65 802.465 1418.12 801.992C1418.59 801.518 1418.91 800.916 1419.05 800.26C1419.18 799.603 1419.11 798.923 1418.85 798.305C1418.6 797.687 1418.16 797.159 1417.61 796.787C1417.05 796.415 1416.4 796.217 1415.73 796.217C1414.83 796.217 1413.97 796.573 1413.34 797.208C1412.7 797.842 1412.34 798.702 1412.34 799.6Z" fill="#313138"/>
<path d="M1348.84 777.036C1348.84 777.705 1349.03 778.359 1349.41 778.915C1349.78 779.472 1350.31 779.905 1350.92 780.161C1351.54 780.417 1352.22 780.484 1352.88 780.354C1353.53 780.223 1354.14 779.901 1354.61 779.428C1355.08 778.955 1355.41 778.352 1355.54 777.696C1355.67 777.04 1355.6 776.36 1355.34 775.742C1355.09 775.123 1354.65 774.595 1354.1 774.223C1353.54 773.852 1352.89 773.653 1352.22 773.653C1351.32 773.653 1350.46 774.01 1349.83 774.644C1349.19 775.279 1348.84 776.139 1348.84 777.036Z" fill="#313138"/>
<path d="M1143.35 635.246C1143.35 635.915 1143.55 636.569 1143.92 637.125C1144.29 637.681 1144.82 638.115 1145.44 638.371C1146.06 638.627 1146.74 638.694 1147.39 638.563C1148.05 638.433 1148.65 638.111 1149.12 637.638C1149.6 637.164 1149.92 636.562 1150.05 635.906C1150.18 635.249 1150.11 634.569 1149.86 633.951C1149.6 633.333 1149.17 632.805 1148.61 632.433C1148.06 632.061 1147.4 631.863 1146.73 631.863C1145.84 631.863 1144.97 632.219 1144.34 632.854C1143.71 633.488 1143.35 634.348 1143.35 635.246Z" fill="#313138"/>
<path d="M1189.87 856.36C1189.87 857.029 1190.07 857.683 1190.44 858.239C1190.81 858.796 1191.34 859.229 1191.96 859.485C1192.58 859.741 1193.26 859.808 1193.92 859.678C1194.57 859.547 1195.17 859.225 1195.65 858.752C1196.12 858.279 1196.44 857.676 1196.57 857.02C1196.7 856.364 1196.64 855.684 1196.38 855.065C1196.13 854.447 1195.69 853.919 1195.14 853.547C1194.58 853.175 1193.92 852.977 1193.26 852.977C1192.36 852.977 1191.5 853.333 1190.86 853.968C1190.23 854.602 1189.87 855.463 1189.87 856.36Z" fill="#313138"/>
<path d="M1146.73 3.48997C1146.73 4.15903 1146.93 4.81305 1147.3 5.36935C1147.67 5.92565 1148.2 6.35924 1148.82 6.61527C1149.44 6.87131 1150.12 6.93831 1150.77 6.80778C1151.43 6.67726 1152.03 6.35507 1152.51 5.88198C1152.98 5.40889 1153.3 4.80612 1153.43 4.14992C1153.56 3.49372 1153.49 2.81356 1153.24 2.19544C1152.98 1.57731 1152.55 1.04899 1151.99 0.677281C1151.44 0.305573 1150.78 0.107178 1150.11 0.107178C1149.22 0.107178 1148.36 0.463563 1147.72 1.09796C1147.09 1.73236 1146.73 2.5928 1146.73 3.48997Z" fill="#313138"/>
<path d="M1577.46 413.977C1577.46 414.646 1577.66 415.3 1578.03 415.856C1578.4 416.413 1578.93 416.846 1579.55 417.102C1580.17 417.358 1580.85 417.425 1581.5 417.295C1582.16 417.164 1582.76 416.842 1583.23 416.369C1583.71 415.896 1584.03 415.293 1584.16 414.637C1584.29 413.981 1584.22 413.301 1583.97 412.683C1583.71 412.064 1583.28 411.536 1582.72 411.164C1582.16 410.793 1581.51 410.594 1580.84 410.594C1579.94 410.594 1579.08 410.951 1578.45 411.585C1577.82 412.219 1577.46 413.08 1577.46 413.977Z" fill="#313138"/>
<path d="M1472.47 15.3662C1472.47 16.0352 1472.67 16.6893 1473.04 17.2456C1473.41 17.8019 1473.94 18.2355 1474.56 18.4915C1475.18 18.7475 1475.86 18.8145 1476.51 18.684C1477.17 18.5535 1477.77 18.2313 1478.25 17.7582C1478.72 17.2851 1479.04 16.6823 1479.17 16.0261C1479.3 15.3699 1479.23 14.6898 1478.98 14.0717C1478.72 13.4535 1478.29 12.9252 1477.73 12.5535C1477.18 12.1818 1476.52 11.9834 1475.85 11.9834C1474.96 11.9834 1474.1 12.3398 1473.46 12.9742C1472.83 13.6086 1472.47 14.469 1472.47 15.3662Z" fill="#313138"/>
<path d="M179.984 630.286C179.984 631.267 180.275 632.226 180.82 633.042C181.366 633.858 182.14 634.494 183.047 634.869C183.953 635.245 184.951 635.343 185.913 635.152C186.876 634.96 187.76 634.488 188.453 633.794C189.147 633.1 189.62 632.216 189.811 631.254C190.003 630.291 189.904 629.294 189.529 628.387C189.153 627.481 188.517 626.706 187.702 626.161C186.886 625.616 185.927 625.325 184.945 625.325C183.63 625.325 182.368 625.848 181.437 626.778C180.507 627.708 179.984 628.97 179.984 630.286Z" fill="#313138"/>
<path d="M82.7012 75.6432C82.7012 76.6244 82.9921 77.5835 83.5372 78.3994C84.0824 79.2152 84.8572 79.8511 85.7637 80.2266C86.6702 80.602 87.6678 80.7003 88.6301 80.5089C89.5925 80.3174 90.4764 79.845 91.1703 79.1511C91.8641 78.4573 92.3366 77.5734 92.528 76.611C92.7194 75.6487 92.6212 74.6512 92.2457 73.7447C91.8702 72.8382 91.2342 72.0634 90.4184 71.5182C89.6026 70.9731 88.6435 70.6821 87.6623 70.6821C86.3465 70.6821 85.0846 71.2048 84.1543 72.1352C83.2239 73.0656 82.7012 74.3274 82.7012 75.6432Z" fill="#313138"/>
<path d="M54.6738 281.684C54.6741 282.664 54.9652 283.623 55.5103 284.438C56.0554 285.254 56.8299 285.889 57.7361 286.264C58.6423 286.64 59.6393 286.738 60.6012 286.546C61.5631 286.355 62.4466 285.882 63.1401 285.189C63.8336 284.495 64.306 283.612 64.4974 282.65C64.6888 281.688 64.5907 280.691 64.2156 279.785C63.8404 278.879 63.205 278.104 62.3896 277.559C61.5743 277.014 60.6156 276.723 59.6348 276.723C58.3191 276.723 57.0572 277.245 56.1268 278.176C55.1965 279.106 54.6738 280.368 54.6738 281.684Z" fill="#313138"/>
<path d="M449.422 473.848C449.422 474.829 449.713 475.788 450.258 476.603C450.803 477.418 451.578 478.054 452.484 478.429C453.39 478.804 454.387 478.902 455.349 478.711C456.311 478.519 457.195 478.047 457.888 477.354C458.582 476.66 459.054 475.777 459.245 474.815C459.437 473.853 459.339 472.856 458.964 471.949C458.588 471.043 457.953 470.269 457.138 469.724C456.322 469.179 455.364 468.888 454.383 468.887C453.067 468.887 451.805 469.41 450.875 470.34C449.945 471.271 449.422 472.533 449.422 473.848Z" fill="#313138"/>
<path d="M656.104 674.778C656.105 675.759 656.396 676.717 656.941 677.533C657.486 678.348 658.261 678.983 659.167 679.359C660.073 679.734 661.07 679.832 662.032 679.64C662.994 679.449 663.877 678.977 664.571 678.283C665.264 677.59 665.737 676.706 665.928 675.744C666.119 674.782 666.021 673.785 665.646 672.879C665.271 671.973 664.636 671.198 663.82 670.653C663.005 670.108 662.046 669.817 661.065 669.817C659.75 669.817 658.488 670.34 657.557 671.27C656.627 672.2 656.104 673.462 656.104 674.778Z" fill="#313138"/>
<path d="M565.374 20.3258C565.374 21.3065 565.665 22.2652 566.21 23.0805C566.756 23.8958 567.53 24.5313 568.436 24.9065C569.342 25.2816 570.34 25.3797 571.301 25.1883C572.263 24.9969 573.147 24.5246 573.84 23.8311C574.534 23.1376 575.006 22.254 575.198 21.2921C575.389 20.3302 575.291 19.3332 574.916 18.427C574.541 17.5209 573.905 16.7463 573.09 16.2012C572.274 15.6561 571.316 15.3651 570.335 15.3647C569.019 15.3647 567.757 15.8874 566.827 16.8178C565.897 17.7482 565.374 19.01 565.374 20.3258Z" fill="#313138"/>
<path d="M343.926 233.845C343.926 234.826 344.217 235.785 344.762 236.6C345.307 237.415 346.082 238.051 346.988 238.426C347.894 238.801 348.891 238.899 349.853 238.708C350.815 238.516 351.699 238.044 352.392 237.351C353.086 236.657 353.558 235.774 353.749 234.812C353.941 233.85 353.843 232.853 353.468 231.947C353.092 231.04 352.457 230.266 351.642 229.721C350.826 229.176 349.868 228.885 348.887 228.884C347.571 228.884 346.309 229.407 345.379 230.337C344.449 231.268 343.926 232.53 343.926 233.845Z" fill="#313138"/>
<path d="M1124.79 1070.13C1124.79 1071.11 1125.09 1072.07 1125.63 1072.89C1126.18 1073.7 1126.95 1074.34 1127.86 1074.71C1128.76 1075.09 1129.76 1075.18 1130.72 1074.99C1131.68 1074.8 1132.57 1074.33 1133.26 1073.64C1133.95 1072.94 1134.43 1072.06 1134.62 1071.1C1134.81 1070.13 1134.71 1069.14 1134.34 1068.23C1133.96 1067.33 1133.32 1066.55 1132.51 1066.01C1131.69 1065.46 1130.74 1065.17 1129.75 1065.17C1128.44 1065.17 1127.18 1065.69 1126.25 1066.62C1125.32 1067.55 1124.79 1068.81 1124.79 1070.13Z" fill="#313138"/>
<path d="M1304.98 1010.1C1304.98 1011.08 1305.27 1012.04 1305.81 1012.85C1306.36 1013.67 1307.13 1014.3 1308.04 1014.68C1308.95 1015.05 1309.94 1015.15 1310.9 1014.96C1311.87 1014.77 1312.75 1014.3 1313.44 1013.6C1314.14 1012.91 1314.61 1012.03 1314.8 1011.07C1314.99 1010.1 1314.89 1009.11 1314.52 1008.2C1314.14 1007.29 1313.51 1006.52 1312.69 1005.97C1311.88 1005.43 1310.92 1005.14 1309.94 1005.14C1308.62 1005.14 1307.36 1005.66 1306.43 1006.59C1305.5 1007.52 1304.98 1008.78 1304.98 1010.1Z" fill="#313138"/>
<path d="M1536.87 903.883C1536.87 904.864 1537.17 905.823 1537.71 906.639C1538.26 907.455 1539.03 908.091 1539.94 908.466C1540.84 908.842 1541.84 908.94 1542.8 908.749C1543.77 908.557 1544.65 908.085 1545.34 907.391C1546.04 906.697 1546.51 905.813 1546.7 904.851C1546.89 903.888 1546.79 902.891 1546.42 901.984C1546.04 901.078 1545.41 900.303 1544.59 899.758C1543.78 899.213 1542.82 898.922 1541.84 898.922C1540.52 898.922 1539.26 899.445 1538.33 900.375C1537.4 901.305 1536.87 902.567 1536.87 903.883Z" fill="#313138"/>
<path d="M1377.7 378.352C1377.7 379.333 1377.99 380.293 1378.53 381.108C1379.08 381.924 1379.85 382.56 1380.76 382.936C1381.66 383.311 1382.66 383.409 1383.62 383.218C1384.59 383.026 1385.47 382.554 1386.16 381.86C1386.86 381.166 1387.33 380.282 1387.52 379.32C1387.71 378.358 1387.62 377.36 1387.24 376.454C1386.86 375.547 1386.23 374.772 1385.41 374.227C1384.6 373.682 1383.64 373.391 1382.66 373.391C1381.34 373.391 1380.08 373.914 1379.15 374.844C1378.22 375.775 1377.7 377.036 1377.7 378.352Z" fill="#313138"/>
<path d="M1504.57 865.451C1504.57 866.432 1504.86 867.391 1505.4 868.206C1505.95 869.021 1506.72 869.657 1507.63 870.032C1508.53 870.407 1509.53 870.505 1510.49 870.314C1511.46 870.122 1512.34 869.65 1513.03 868.957C1513.73 868.263 1514.2 867.38 1514.39 866.418C1514.58 865.456 1514.48 864.459 1514.11 863.553C1513.73 862.646 1513.1 861.872 1512.28 861.327C1511.47 860.782 1510.51 860.491 1509.53 860.49C1508.21 860.49 1506.95 861.013 1506.02 861.943C1505.09 862.874 1504.57 864.136 1504.57 865.451Z" fill="#313138"/>
<path d="M1578.06 610.678C1578.06 612.343 1578.56 613.971 1579.48 615.356C1580.41 616.74 1581.72 617.82 1583.26 618.457C1584.8 619.095 1586.49 619.261 1588.13 618.937C1589.76 618.612 1591.26 617.81 1592.44 616.632C1593.61 615.455 1594.42 613.955 1594.74 612.322C1595.07 610.688 1594.9 608.995 1594.26 607.457C1593.62 605.919 1592.54 604.604 1591.16 603.679C1589.77 602.754 1588.15 602.26 1586.48 602.261C1584.25 602.261 1582.11 603.148 1580.53 604.726C1578.95 606.305 1578.06 608.446 1578.06 610.678Z" fill="#313138"/>
<path d="M971.05 825.399C971.05 827.064 971.543 828.691 972.468 830.075C973.393 831.46 974.708 832.539 976.246 833.176C977.784 833.813 979.476 833.979 981.109 833.655C982.742 833.33 984.242 832.528 985.419 831.351C986.596 830.174 987.398 828.674 987.722 827.041C988.047 825.408 987.881 823.716 987.243 822.178C986.606 820.64 985.527 819.325 984.143 818.4C982.759 817.476 981.132 816.982 979.467 816.982C978.362 816.982 977.267 817.2 976.246 817.623C975.225 818.046 974.297 818.666 973.515 819.447C972.733 820.229 972.113 821.157 971.69 822.178C971.267 823.199 971.05 824.294 971.05 825.399Z" fill="#313138"/>
<path d="M1021.67 341.825C1021.67 342.587 1021.9 343.331 1022.32 343.964C1022.75 344.597 1023.35 345.09 1024.05 345.382C1024.75 345.673 1025.53 345.749 1026.28 345.601C1027.02 345.452 1027.71 345.086 1028.25 344.547C1028.78 344.009 1029.15 343.323 1029.3 342.576C1029.45 341.829 1029.37 341.055 1029.08 340.352C1028.79 339.649 1028.3 339.047 1027.66 338.624C1027.03 338.201 1026.29 337.976 1025.52 337.976C1024.5 337.976 1023.52 338.381 1022.8 339.103C1022.08 339.825 1021.67 340.804 1021.67 341.825Z" fill="#313138"/>
<path d="M925.364 70.6806C925.364 71.442 925.59 72.1862 926.013 72.8193C926.436 73.4524 927.037 73.9458 927.741 74.2372C928.444 74.5285 929.218 74.6047 929.965 74.4562C930.711 74.3077 931.397 73.941 931.936 73.4027C932.474 72.8643 932.841 72.1784 932.989 71.4316C933.138 70.6849 933.062 69.9109 932.77 69.2075C932.479 68.504 931.985 67.9028 931.352 67.4798C930.719 67.0568 929.975 66.8311 929.214 66.8311C928.193 66.8311 927.214 67.2366 926.492 67.9586C925.77 68.6805 925.364 69.6597 925.364 70.6806Z" fill="#313138"/>
<path d="M767.576 402.102C767.576 402.864 767.802 403.608 768.225 404.241C768.648 404.874 769.249 405.367 769.952 405.659C770.656 405.95 771.43 406.026 772.177 405.878C772.923 405.729 773.609 405.363 774.148 404.824C774.686 404.286 775.053 403.6 775.201 402.853C775.35 402.107 775.274 401.332 774.982 400.629C774.691 399.926 774.197 399.324 773.564 398.901C772.931 398.478 772.187 398.253 771.426 398.253C770.405 398.253 769.425 398.658 768.704 399.38C767.982 400.102 767.576 401.081 767.576 402.102Z" fill="#313138"/>
<path d="M1876.94 371.159C1876.36 373.034 1876.35 375.039 1876.91 376.92C1877.47 378.8 1878.58 380.472 1880.09 381.724C1881.6 382.976 1883.45 383.752 1885.4 383.954C1887.35 384.155 1889.32 383.773 1891.06 382.856C1892.79 381.939 1894.22 380.528 1895.15 378.802C1896.08 377.075 1896.48 375.111 1896.3 373.157C1896.12 371.203 1895.36 369.347 1894.12 367.825C1892.88 366.302 1891.22 365.181 1889.34 364.602C1886.83 363.827 1884.11 364.083 1881.78 365.312C1879.46 366.542 1877.72 368.645 1876.94 371.159Z" fill="#313138"/>
<path d="M1850.62 363.041C1850.34 363.979 1850.33 364.981 1850.61 365.922C1850.89 366.862 1851.44 367.698 1852.2 368.324C1852.96 368.95 1853.88 369.338 1854.86 369.439C1855.83 369.54 1856.82 369.349 1857.68 368.89C1858.55 368.432 1859.26 367.726 1859.73 366.863C1860.2 365.999 1860.4 365.017 1860.3 364.04C1860.21 363.063 1859.83 362.136 1859.21 361.374C1858.6 360.613 1857.76 360.052 1856.83 359.763C1855.57 359.376 1854.21 359.503 1853.05 360.118C1851.88 360.733 1851.01 361.784 1850.62 363.041Z" fill="#313138"/>
<path d="M1826.12 355.478C1825.88 356.236 1825.88 357.046 1826.11 357.805C1826.33 358.565 1826.78 359.24 1827.39 359.745C1828 360.25 1828.75 360.563 1829.54 360.643C1830.33 360.724 1831.12 360.569 1831.82 360.198C1832.52 359.827 1833.1 359.257 1833.47 358.56C1833.85 357.862 1834.01 357.068 1833.94 356.279C1833.86 355.49 1833.56 354.741 1833.06 354.126C1832.56 353.511 1831.89 353.058 1831.13 352.824C1830.62 352.669 1830.1 352.615 1829.57 352.664C1829.05 352.714 1828.54 352.866 1828.07 353.113C1827.61 353.359 1827.19 353.695 1826.86 354.101C1826.52 354.507 1826.27 354.975 1826.12 355.478Z" fill="#313138"/>
<path d="M1912.73 382.202C1912.5 382.959 1912.49 383.769 1912.72 384.529C1912.95 385.288 1913.39 385.963 1914.01 386.468C1914.62 386.973 1915.36 387.286 1916.15 387.367C1916.94 387.448 1917.74 387.293 1918.44 386.922C1919.14 386.551 1919.71 385.981 1920.09 385.283C1920.46 384.585 1920.63 383.792 1920.55 383.003C1920.48 382.213 1920.17 381.464 1919.67 380.849C1919.17 380.234 1918.5 379.781 1917.74 379.548C1917.24 379.393 1916.71 379.338 1916.18 379.388C1915.66 379.437 1915.15 379.59 1914.68 379.836C1914.22 380.083 1913.81 380.418 1913.47 380.824C1913.14 381.23 1912.88 381.698 1912.73 382.202Z" fill="#313138"/>
</svg>
