<svg width="675" height="674" viewBox="0 0 675 674" fill="none" xmlns="http://www.w3.org/2000/svg">
<path d="M0.369141 336.98C0.366302 403.629 20.1293 468.783 57.1588 524.201C94.1882 579.619 146.821 622.812 208.401 648.32C269.982 673.827 337.744 680.503 403.118 667.502C468.493 654.501 528.543 622.408 575.677 575.281C622.81 528.154 654.908 468.11 667.913 402.742C680.918 337.374 674.245 269.617 648.738 208.041C623.231 146.465 580.035 93.8354 524.614 56.8068C469.192 19.7783 404.034 0.0144044 337.38 0.0144043C247.999 0.0144043 162.279 35.5176 99.0772 98.7137C35.8755 161.91 0.369141 247.622 0.369141 336.995" fill="#E4432B"/>
</svg>
