<svg width="914" height="1605" viewBox="0 0 914 1605" fill="none" xmlns="http://www.w3.org/2000/svg">
<path d="M0.369141 336.98C0.366302 403.629 20.1293 468.783 57.1588 524.201C94.1882 579.619 146.821 622.812 208.401 648.32C269.982 673.827 337.744 680.503 403.118 667.502C468.493 654.501 528.543 622.408 575.677 575.281C622.81 528.154 654.908 468.11 667.913 402.742C680.918 337.374 674.245 269.617 648.738 208.041C623.231 146.465 580.035 93.8354 524.614 56.8068C469.192 19.7783 404.034 0.0144044 337.38 0.0144043C247.999 0.0144043 162.279 35.5176 99.0772 98.7137C35.8755 161.91 0.369141 247.622 0.369141 336.995" fill="#E4432B"/>
<path d="M10.5592 585.116C10.9469 593.505 12.0942 601.842 13.9872 610.023C17.8239 626.293 23.1593 642.173 29.9249 657.459C36.5285 672.766 44.0192 687.672 52.0325 702.268C68.2772 731.328 86.0059 759.535 105.148 786.775C124.147 814.088 144.101 840.71 164.67 866.858C205.796 919.151 249.233 969.557 293.87 1018.86C338.508 1068.17 384.44 1116.27 431.22 1163.54C524.85 1257.99 621.811 1349.09 720.948 1437.72C784.427 1494.45 848.777 1550.16 913.997 1604.87V1604.44C849.008 1549.63 784.859 1493.83 721.551 1437.04C622.635 1348.2 525.895 1256.9 432.497 1162.27C385.83 1114.93 339.972 1066.79 295.418 1017.48C250.864 968.162 207.524 917.701 166.504 865.419C145.996 839.294 126.102 812.661 107.167 785.374C88.1104 758.182 70.4631 730.029 54.2948 701.027C46.3188 686.478 38.8856 671.638 32.3366 656.414C25.6645 641.27 20.4033 625.543 16.62 609.432C14.7745 601.415 13.6596 593.248 13.2894 585.03C12.8754 576.858 13.7299 568.672 15.822 560.762C17.9939 552.936 22.0186 545.747 27.556 539.805C33.2501 533.996 40.1502 529.509 47.7689 526.659C51.5878 525.206 55.5054 524.027 59.4918 523.131C63.4937 522.244 67.5428 521.584 71.6194 521.156C79.8212 520.307 88.0763 520.093 96.311 520.515C112.834 521.432 129.254 523.7 145.407 527.296C161.612 530.741 177.624 535.114 193.476 539.989C209.327 544.863 225.004 550.324 240.562 556.108C271.663 567.718 302.249 580.735 332.439 594.544C362.629 608.353 392.462 623.02 422.003 638.23C481.08 668.661 539.016 701.26 596.203 735.122C653.366 769.033 709.81 804.119 765.537 840.38C815.495 872.78 864.973 905.891 913.974 939.712V935.52C865.548 902.218 816.676 869.565 767.36 837.56C711.524 801.416 655.022 766.334 597.854 732.314C540.618 698.452 482.607 665.833 423.456 635.399C393.866 620.184 363.995 605.519 333.733 591.696C303.472 577.873 272.823 564.824 241.625 553.226C226.02 547.424 210.266 541.995 194.343 537.106C178.42 532.217 162.321 527.853 146.005 524.4C129.686 520.794 113.1 518.53 96.4116 517.63C88.0345 517.204 79.6367 517.431 71.2949 518.311C67.1067 518.757 62.9467 519.436 58.8343 520.346C54.717 521.29 50.6697 522.517 46.721 524.018C38.7195 527.032 31.4761 531.763 25.5005 537.878C19.6595 544.159 15.4186 551.754 13.1373 560.021C10.9749 568.211 10.0965 576.686 10.5333 585.144" fill="#E9BD8C"/>
</svg>
