<svg width="64" height="63" viewBox="0 0 64 63" fill="none" xmlns="http://www.w3.org/2000/svg">
<path d="M29.2169 30.387C29.4552 30.3998 29.6935 30.3624 29.9164 30.277C30.1392 30.1916 30.3416 30.0603 30.5104 29.8915C30.6791 29.7228 30.8105 29.5204 30.8959 29.2975C30.9812 29.0746 31.0187 28.8363 31.0059 28.598L31.9468 0.179993L32.8879 28.598C32.875 28.8363 32.9125 29.0746 32.9979 29.2975C33.0832 29.5204 33.2145 29.7228 33.3833 29.8915C33.5521 30.0603 33.7545 30.1916 33.9774 30.277C34.2002 30.3624 34.4386 30.3998 34.6769 30.387L63.0959 31.328L34.6769 32.27C34.4387 32.2572 34.2004 32.2946 33.9776 32.3799C33.7548 32.4652 33.5525 32.5965 33.3837 32.7651C33.215 32.9338 33.0836 33.136 32.9982 33.3588C32.9127 33.5815 32.8752 33.8198 32.8879 34.058L31.9468 62.477L31.0059 34.058C31.0186 33.8198 30.9809 33.5815 30.8955 33.3588C30.8101 33.136 30.6787 32.9338 30.51 32.7651C30.3413 32.5965 30.1389 32.4652 29.9161 32.3799C29.6933 32.2946 29.4551 32.2572 29.2169 32.27L0.797852 31.328L29.2169 30.387Z" fill="#E9BD8C"/>
</svg>
