<svg width="268" height="227" viewBox="0 0 268 227" fill="none" xmlns="http://www.w3.org/2000/svg">
<path d="M40.3279 220.011C40.3279 222.011 38.5759 223.443 35.6749 224.411C33.571 225.057 31.4057 225.483 29.2139 225.682C26.3978 225.972 23.5679 226.109 20.7369 226.091C13.3739 226.091 6.95787 225.352 3.61487 223.465C2.04187 222.581 1.14587 221.437 1.14587 220.011C1.14587 215.532 9.91987 209.86 20.7369 209.86C21.0619 209.86 21.3919 209.865 21.7109 209.877C32.0749 210.201 40.3279 215.666 40.3279 220.011Z" fill="#97ACAD"/>
<path d="M35.672 224.406C33.568 225.052 31.4027 225.478 29.211 225.677C29.1541 224.561 28.8377 223.474 28.287 222.502C26.607 220.067 18.752 216.466 18.752 216.466L21.305 215.195C31.176 218.18 34.687 221.629 35.672 224.406Z" fill="#2C2D30"/>
<path d="M22.1849 210.072C22.1849 210.072 4.82193 215.318 3.97093 220.972C3.83693 221.879 3.71393 222.707 3.61293 223.463C2.04493 222.58 1.14893 221.437 1.14893 220.01C1.14893 215.531 9.92292 209.859 20.7399 209.859C21.0653 209.859 21.3903 209.865 21.7149 209.876C22.0149 210.005 22.1849 210.076 22.1849 210.076" fill="#F0E4CD"/>
<path d="M20.7389 226.437C11.6389 226.437 0.790894 225.327 0.790894 220.014C0.790894 215.252 9.69089 209.502 20.7389 209.502C31.7869 209.502 40.6909 215.252 40.6909 220.014C40.6909 225.327 29.8429 226.442 20.7429 226.442M20.7429 210.218C10.3859 210.218 1.51189 215.604 1.51189 220.018C1.51189 223.701 8.34089 225.729 20.7429 225.729C33.1449 225.729 39.9739 223.701 39.9739 220.018C39.9739 215.608 31.0999 210.218 20.7429 210.218Z" fill="#2C2D30"/>
<path d="M39.5329 219.453C39.0105 220.078 38.3759 220.601 37.6619 220.993C36.9465 221.384 36.1987 221.712 35.4269 221.974C33.8793 222.473 32.2933 222.845 30.6849 223.084C27.4741 223.536 24.2353 223.76 20.9929 223.754C17.7517 223.775 14.5128 223.574 11.2989 223.154C9.68886 222.93 8.09802 222.586 6.53987 222.123C4.96321 221.7 3.50809 220.912 2.29187 219.823C2.91935 220.325 3.61328 220.737 4.35387 221.048C5.09544 221.35 5.85857 221.597 6.63687 221.785C8.19176 222.175 9.77342 222.45 11.3689 222.606C14.5649 222.939 17.7779 223.083 20.9909 223.037C24.2038 223.069 27.4156 222.902 30.6079 222.537C32.2005 222.364 33.7766 222.063 35.3209 221.637C36.0937 221.43 36.8472 221.157 37.5729 220.821C38.2982 220.477 38.9605 220.013 39.5319 219.449" fill="#2C2D30"/>
<path d="M82.5519 120.871H62.9269L60.5189 124.071L54.7799 131.691L25.3569 170.769L17.5639 213.916C17.4998 214.268 17.5136 214.629 17.6046 214.975C17.6956 215.32 17.8614 215.642 18.0904 215.916C18.3194 216.191 18.6059 216.412 18.9296 216.563C19.2534 216.715 19.6065 216.793 19.9639 216.793C20.4718 216.795 20.9674 216.636 21.3799 216.34C21.7927 216.046 22.1038 215.631 22.2699 215.153L35.9939 175.495L84.2349 136.755L82.5519 120.871ZM21.1409 209.862L27.6079 174.067L32.7909 176.195L21.1409 209.862ZM33.8619 173.614L28.4089 171.374L40.4909 155.327L47.8029 162.421L33.8619 173.614ZM58.0049 154.23L50.0049 160.652L42.1909 153.071L57.7619 132.388L58.0079 132.058L58.0049 154.23ZM60.8049 151.979V128.337L62.6049 125.946L64.3239 123.667H80.0319L81.2919 135.526L60.8049 151.979Z" fill="#F0E4CD"/>
<path d="M82.7549 122.784C81.8769 123.556 81.0232 124.356 80.1939 125.184L81.2939 135.524L60.8049 151.978V142.929C59.8769 143.604 58.9435 144.274 58.0049 144.937V154.229L50.0049 160.651L44.0249 154.851L41.7009 156.499L47.8009 162.421L33.8629 173.613L32.0959 172.888C31.6165 173.699 31.1365 174.509 30.6559 175.318L32.7879 176.194L21.1419 209.861L24.3099 192.326C22.9469 194.726 21.5409 197.108 20.1669 199.504L17.5669 213.915C17.5027 214.267 17.5166 214.628 17.6075 214.974C17.6985 215.32 17.8643 215.641 18.0933 215.916C18.3223 216.19 18.6087 216.411 18.9325 216.563C19.2563 216.714 19.6094 216.793 19.9669 216.793C20.4749 216.795 20.9704 216.636 21.3829 216.339C21.7959 216.046 22.1073 215.631 22.2739 215.153L35.9969 175.494L84.2379 136.755L82.7549 122.784Z" fill="#97ACAD"/>
<path d="M62.6029 125.949L60.8029 128.34V133.093C59.8279 132.875 58.8879 132.651 58.0029 132.45V132.058L57.7559 132.388C56.6469 132.13 55.6389 131.888 54.7769 131.688L60.5169 124.068C61.1939 124.668 61.8929 125.3 62.5999 125.949" fill="#2C2D30"/>
<path d="M19.9669 217.149C19.5569 217.149 19.152 217.059 18.7807 216.885C18.4094 216.711 18.0808 216.458 17.8181 216.143C17.5554 215.828 17.3651 215.46 17.2605 215.063C17.1559 214.667 17.1396 214.252 17.2129 213.849L25.0219 170.62L25.0729 170.552L62.7499 120.511H82.8748L84.6158 136.911L36.3019 175.711L22.6129 215.267C22.422 215.816 22.0648 216.293 21.5908 216.63C21.1179 216.97 20.5494 217.152 19.9669 217.149ZM25.6969 170.914L17.9179 213.976C17.8629 214.276 17.8746 214.585 17.9522 214.88C18.0298 215.175 18.1713 215.45 18.3669 215.684C18.5624 215.918 18.8071 216.107 19.0836 216.236C19.3601 216.365 19.6616 216.432 19.9669 216.432C20.3998 216.434 20.8223 216.3 21.1739 216.047C21.5275 215.796 21.7939 215.441 21.9359 215.031L35.6909 175.277L83.8608 136.595L82.2309 121.226H63.1069L25.6969 170.914ZM21.3249 209.588C21.2884 209.588 21.2521 209.583 21.2169 209.574C21.1163 209.548 21.0295 209.484 20.9738 209.396C20.9181 209.309 20.8978 209.203 20.9169 209.101L27.3369 173.565L33.2368 175.989L21.7119 209.309C21.6843 209.39 21.6321 209.461 21.5626 209.511C21.493 209.561 21.4105 209.588 21.3249 209.588ZM27.8869 174.564L22.3229 205.364L32.3419 176.398L27.8869 174.564ZM33.9258 174.022L27.8478 171.522L40.4508 154.784L48.3509 162.444L33.9258 174.022ZM28.9789 171.216L33.8078 173.199L47.2679 162.394L40.5379 155.864L28.9789 171.216ZM49.9839 161.127L41.7129 153.105L58.3649 130.983V154.398L49.9839 161.127ZM42.6658 153.027L50.0279 160.168L57.6489 154.051V133.126L42.6658 153.027ZM60.4479 152.72V128.217L64.1479 123.31H80.3559L81.6698 135.683L60.4479 152.72ZM61.1649 128.453V151.225L80.9159 135.365L79.7108 124.026H64.5009L61.1649 128.453Z" fill="#2C2D30"/>
<path d="M21.3809 209.393C21.343 209.393 21.3054 209.388 21.2689 209.378C21.1639 209.351 21.073 209.285 21.0147 209.194C20.9564 209.103 20.935 208.992 20.9549 208.886L27.3359 173.565L33.2359 175.99L21.7839 209.103C21.7555 209.187 21.7017 209.26 21.6301 209.312C21.5584 209.364 21.4724 209.392 21.3839 209.393M27.8839 174.565L22.3199 205.365L32.3399 176.399L27.8839 174.565Z" fill="#2C2D30"/>
<path d="M33.9228 174.023L27.8448 171.523L40.4518 154.78L48.3458 162.44L33.9228 174.023ZM28.9758 171.216L33.8048 173.199L47.2648 162.394L40.5348 155.865L28.9758 171.216Z" fill="#2C2D30"/>
<path d="M49.9829 161.127L41.7129 153.105L58.3649 130.983V154.398L49.9829 161.127ZM42.6659 153.027L50.0279 160.168L57.6479 154.051V133.127L42.6659 153.027Z" fill="#2C2D30"/>
<path d="M21.5358 209.819L21.1688 209.76C21.0716 209.735 20.9873 209.675 20.9334 209.59C20.8795 209.505 20.86 209.403 20.8788 209.305L27.3358 173.565L33.2358 175.99L21.5358 209.819ZM27.8838 174.565L22.3198 205.36L32.3398 176.396L27.8838 174.565Z" fill="#2C2D30"/>
<path d="M33.9228 174.023L27.8448 171.523L40.4518 154.78L48.3458 162.44L33.9228 174.023ZM28.9758 171.216L33.8048 173.199L47.2648 162.394L40.5348 155.865L28.9758 171.216Z" fill="#2C2D30"/>
<path d="M49.9829 161.127L41.7129 153.105L58.3649 130.983V154.398L49.9829 161.127ZM42.6659 153.027L50.0279 160.168L57.6479 154.051V133.127L42.6659 153.027Z" fill="#2C2D30"/>
<path d="M266.851 220.011C266.851 221.439 265.951 222.581 264.387 223.46C263.982 223.686 263.563 223.886 263.133 224.06C261.076 224.823 258.932 225.326 256.75 225.56C253.601 225.935 250.431 226.11 247.26 226.086C236.443 226.086 227.669 224.496 227.669 220.011C227.669 215.666 235.922 210.201 246.286 209.877C246.61 209.865 246.935 209.86 247.26 209.86C258.077 209.86 266.851 215.532 266.851 220.011Z" fill="#97ACAD"/>
<path d="M263.133 224.059C261.076 224.822 258.932 225.325 256.75 225.559C256.005 219.226 247.086 216.79 247.086 216.79L249.841 214.39C261.268 217.834 263.189 221.742 263.133 224.054" fill="#2C2D30"/>
<path d="M248.705 210.072C248.705 210.072 231.342 215.318 230.491 220.972C230.357 221.879 230.234 222.707 230.133 223.463C228.565 222.584 227.669 221.442 227.669 220.014C227.669 215.535 236.443 209.863 247.26 209.863C247.585 209.863 247.91 209.869 248.235 209.88C248.535 210.009 248.705 210.08 248.705 210.08" fill="#F0E4CD"/>
<path d="M247.262 226.437C238.162 226.437 227.313 225.322 227.313 220.009C227.313 215.247 236.213 209.497 247.262 209.497C258.311 209.497 267.209 215.247 267.209 220.009C267.209 225.322 256.361 226.437 247.262 226.437ZM247.262 210.213C236.904 210.213 228.031 215.599 228.031 220.013C228.031 223.696 234.859 225.724 247.262 225.724C259.665 225.724 266.492 223.696 266.492 220.013C266.492 215.603 257.618 210.213 247.262 210.213Z" fill="#2C2D30"/>
<path d="M228.467 219.453C229.038 220.017 229.701 220.481 230.426 220.825C231.152 221.161 231.905 221.434 232.678 221.641C234.222 222.067 235.798 222.368 237.391 222.541C240.583 222.906 243.795 223.073 247.008 223.041C250.221 223.086 253.435 222.941 256.631 222.608C258.226 222.452 259.808 222.177 261.363 221.787C262.141 221.598 262.904 221.352 263.646 221.05C264.387 220.739 265.08 220.327 265.708 219.825C264.492 220.914 263.037 221.702 261.46 222.125C259.902 222.588 258.311 222.932 256.701 223.156C253.487 223.576 250.248 223.776 247.007 223.756C243.764 223.762 240.526 223.538 237.315 223.086C235.706 222.847 234.12 222.475 232.573 221.976C231.801 221.714 231.053 221.386 230.338 220.995C229.624 220.602 228.989 220.08 228.467 219.455" fill="#2C2D30"/>
<path d="M250.434 213.916L242.64 170.77L216.929 136.621L205.07 120.871H185.446L183.76 136.755L188.1 140.244L232 175.495L245.723 215.153C245.925 215.733 246.339 216.215 246.881 216.504C247.424 216.792 248.055 216.866 248.649 216.71C249.243 216.554 249.756 216.18 250.087 215.662C250.417 215.144 250.541 214.521 250.432 213.916M207.191 151.979L192.191 139.93L186.71 135.53L187.969 123.671H203.68L207.196 128.341L207.191 151.979ZM209.991 154.23V132.058L213.865 137.203L225.808 153.071L217.992 160.652L209.991 154.23ZM220.191 162.421L227.504 155.327L239.591 171.374L234.138 173.614L220.191 162.421ZM235.208 176.195L240.387 174.067L246.854 209.862L235.208 176.195Z" fill="#97ACAD"/>
<path d="M216.929 136.621C215.921 136.821 214.897 137.021 213.866 137.203L209.992 132.058V137.858C209.059 138.004 208.125 138.142 207.192 138.273V128.337L203.676 123.667H187.965L186.705 135.526L192.187 139.926C190.697 140.049 189.32 140.156 188.1 140.24L183.76 136.752L185.446 120.867H205.07L216.929 136.621Z" fill="#2C2D30"/>
<path d="M248.033 217.149C247.452 217.149 246.885 216.968 246.411 216.631C245.937 216.295 245.58 215.819 245.389 215.27L231.698 175.708L183.385 136.908L185.125 120.508H205.251L242.979 170.616L242.994 170.701L250.791 213.85C250.864 214.253 250.848 214.668 250.743 215.064C250.639 215.461 250.448 215.83 250.185 216.144C249.923 216.459 249.594 216.712 249.222 216.886C248.851 217.06 248.446 217.15 248.036 217.15M184.142 136.597L232.311 175.279L246.065 215.037C246.206 215.445 246.472 215.798 246.824 216.048C247.175 216.302 247.599 216.438 248.033 216.436C248.338 216.436 248.64 216.369 248.916 216.24C249.192 216.111 249.437 215.923 249.633 215.688C249.828 215.454 249.97 215.18 250.048 214.885C250.126 214.59 250.138 214.281 250.083 213.981L242.304 170.918L204.891 121.227H185.77L184.142 136.597ZM246.679 209.589C246.593 209.589 246.509 209.562 246.44 209.512C246.37 209.462 246.318 209.391 246.291 209.31L234.765 175.991L240.665 173.566L247.086 209.102C247.105 209.204 247.085 209.31 247.029 209.398C246.974 209.486 246.887 209.55 246.786 209.576C246.751 209.585 246.716 209.589 246.68 209.589M235.661 176.396L245.681 205.361L240.117 174.561L235.661 176.396ZM234.077 174.023L219.654 162.444L227.549 154.785L240.155 171.527L234.077 174.023ZM220.736 162.394L234.196 173.2L239.024 171.216L227.465 155.865L220.736 162.394ZM218.017 161.127L209.635 154.399V130.984L226.291 153.106L218.017 161.127ZM210.352 154.056L217.972 160.173L225.334 153.032L210.352 133.132V154.056ZM207.552 152.724L186.33 135.684L187.644 123.31H203.857L207.557 128.218L207.552 152.724ZM187.084 135.37L206.835 151.229V128.458L203.499 124.026H188.291L187.084 135.37Z" fill="#2C2D30"/>
<path d="M246.62 209.392C246.531 209.391 246.445 209.363 246.373 209.311C246.302 209.259 246.248 209.186 246.22 209.102L234.765 175.989L240.665 173.565L247.046 208.885C247.056 208.947 247.053 209.011 247.037 209.072C247.02 209.132 246.991 209.189 246.95 209.237C246.91 209.285 246.859 209.324 246.802 209.351C246.745 209.378 246.683 209.392 246.62 209.392ZM235.661 176.392L245.681 205.358L240.117 174.558L235.661 176.392Z" fill="#2C2D30"/>
<path d="M234.076 174.023L219.654 162.444L227.549 154.784L240.154 171.527L234.076 174.023ZM220.736 162.394L234.191 173.199L239.02 171.216L227.461 155.865L220.736 162.394Z" fill="#2C2D30"/>
<path d="M218.016 161.127L209.634 154.398V130.983L226.286 153.105L218.016 161.127ZM210.352 154.055L217.971 160.172L225.333 153.031L210.352 133.131V154.055Z" fill="#2C2D30"/>
<path d="M246.729 209.773C246.647 209.773 246.566 209.747 246.499 209.699C246.433 209.651 246.382 209.584 246.356 209.506L234.762 175.989L240.662 173.565L247.181 209.637L246.831 209.765C246.798 209.773 246.765 209.778 246.731 209.778M235.661 176.395L245.681 205.361L240.117 174.561L235.661 176.395Z" fill="#2C2D30"/>
<path d="M234.076 174.023L219.654 162.444L227.549 154.784L240.154 171.527L234.076 174.023ZM220.736 162.394L234.191 173.199L239.02 171.216L227.461 155.865L220.736 162.394Z" fill="#2C2D30"/>
<path d="M218.016 161.127L209.634 154.398V130.983L226.286 153.105L218.016 161.127ZM210.352 154.055L217.971 160.172L225.333 153.031L210.352 133.131V154.055Z" fill="#2C2D30"/>
<path d="M109.629 18.994L108.171 19.339L108.371 25.203L104.416 26.477L90.3179 11.137L88.5609 12.08L102.617 27.102C102.617 27.102 87.8249 32.879 77.5019 44.157L77.0669 43.902C77.0669 43.902 77.1949 41.219 74.8499 40.631C73.5624 40.2622 72.1941 40.2869 70.9209 40.702C71.0571 39.9733 70.9462 39.2201 70.6058 38.5617C70.2654 37.9032 69.7151 37.3772 69.0419 37.067C66.5559 35.577 64.3829 36.779 63.2469 38.782C62.1109 40.785 63.4149 43.313 64.5419 44.426C60.2068 48.0113 56.5843 52.3794 53.8629 57.303L53.1389 57.961L28.3389 49.308C28.3389 49.308 26.7519 48.642 26.8939 49.351C27.0359 50.06 28.2829 50.79 28.2829 50.79L50.2749 63.677L50.3749 64.114C50.3749 64.114 46.2119 75.079 46.2909 80.984C46.3699 86.889 48.3229 90.584 50.7909 90.527C53.2589 90.47 56.7689 86.662 56.7689 86.662L56.2629 94.162C47.7174 96.0699 39.346 98.6877 31.2359 101.988C18.4699 107.271 20.4039 113.537 22.8039 115.651C25.2039 117.765 37.8239 124.668 64.2919 129.995C64.2919 129.995 72.1919 147.728 89.2919 158.288C89.2919 158.288 106.953 170.236 127.44 171.188C147.927 172.14 164.87 162.624 168.74 160.657C172.61 158.69 188.867 148.173 195.981 132.693L197.381 129.212C197.381 129.212 223.654 124.638 236.404 116.445C249.154 108.252 229.682 100.787 229.682 100.787C229.682 100.787 214.982 95.171 205.394 93.42L205.039 90.465C205.039 90.465 213.874 80.282 217.585 67.742L217.81 68.128L240.622 73.549C240.622 73.549 240.97 77.135 244.14 76.479C244.666 76.4208 245.169 76.2323 245.604 75.9304C246.039 75.6285 246.392 75.2228 246.63 74.7501C246.868 74.2774 246.985 73.7527 246.969 73.2236C246.954 72.6945 246.806 72.1776 246.54 71.72C245.821 70.3829 243.646 68.803 241.09 71.25L218.936 63.257C220.913 56.2802 221.707 49.0213 221.285 41.782C220.448 30.513 218.893 32.694 215.899 34.673C209.736 39.2163 204.255 44.6192 199.624 50.717L195.571 56.317L194.75 56.792L193.45 55.887C193.45 55.887 185.827 40.087 163.62 29.171L174.234 9.90795L171.782 9.90295L161.855 28.26L152.855 25L152.669 18.818L109.629 18.994Z" fill="#97ACAD"/>
<path d="M92.8328 138.279C92.8328 138.279 97.3458 166.049 133.433 171.179C133.433 171.179 88.9488 173.944 66.0328 133.352L92.8328 138.279Z" fill="#F0E4CD"/>
<path d="M70.5109 101.945C70.5109 101.945 36.6889 112.715 47.2739 125.505C47.2739 125.505 34.3739 123.195 26.4419 117.958C18.5099 112.721 20.6709 112.037 23.1179 107.437C25.5649 102.837 49.3269 94.559 56.2659 94.159C63.2049 93.759 70.5109 101.945 70.5109 101.945Z" fill="#F0E4CD"/>
<path d="M108.172 19.3369L108.135 23.1369C108.135 23.1479 108.146 23.1579 108.15 23.1699C108.237 23.4384 108.256 23.7243 108.205 24.0019L108.594 24.6749C108.33 24.7499 108.069 24.8309 107.807 24.9099C107.563 25.2441 107.213 25.4867 106.815 25.5989C106.427 25.7198 106.045 25.862 105.673 26.0249C105.492 26.0929 105.307 26.1479 105.125 26.2119C105.025 26.2429 104.937 26.2789 104.844 26.3119C104.822 26.3259 104.776 26.3509 104.689 26.3969C104.547 26.4748 104.397 26.5365 104.242 26.5809C105.084 27.6344 105.999 28.6269 106.981 29.5509C107.789 30.2369 108.543 30.9852 109.234 31.7889C111.839 30.1003 114.571 28.6146 117.404 27.3449L117.881 21.5959C113.302 21.6959 108.172 19.3389 108.172 19.3389" fill="#F0E4CD"/>
<path d="M102.827 27.121C102.819 27.126 102.812 27.134 102.804 27.139C102.243 27.422 101.665 27.6698 101.073 27.881C100.578 28.097 99.9188 28.404 99.3458 28.643C99.0345 28.768 98.6899 28.7831 98.3688 28.686C89.4201 33.2506 81.4433 39.5102 74.8818 47.117C76.1867 48.1401 77.4076 49.2661 78.5328 50.484C79.0166 49.932 79.5389 49.415 80.0958 48.937C81.5422 47.7787 83.0742 46.7317 84.6788 45.805C84.7657 45.7478 84.8655 45.7134 84.9692 45.705C85.0728 45.6967 85.1769 45.7145 85.2718 45.757C85.276 45.6148 85.3262 45.4779 85.415 45.3668C85.5037 45.2557 85.6261 45.1764 85.7638 45.141C86.1068 45.0452 86.4122 44.8466 86.6388 44.572C86.775 44.4414 86.9571 44.3697 87.1457 44.3723C87.3343 44.3749 87.5143 44.4517 87.6468 44.586C87.6682 44.6132 87.6869 44.6423 87.7028 44.673C88.2115 44.379 88.7225 44.0826 89.2358 43.784C91.5458 42.433 94.5608 40.91 97.3128 40.869C100.666 37.8263 104.251 35.0483 108.034 32.56C107.249 31.7092 106.412 30.9077 105.528 30.16C104.571 29.1965 103.67 28.1799 102.828 27.115" fill="#F0E4CD"/>
<path d="M70.8909 90.182C69.2229 89.268 68.2409 87.182 67.2589 85.645C66.3282 84.3682 65.6091 82.9501 65.1289 81.445C64.7769 80.051 64.9919 78.598 64.7029 77.19C64.6792 77.0864 64.6801 76.9786 64.7057 76.8755C64.7312 76.7723 64.7806 76.6766 64.8499 76.596C64.8146 75.7249 64.8612 74.8524 64.9889 73.99C65.0539 72.7389 65.233 71.4964 65.5239 70.278C65.5188 70.2308 65.5188 70.1832 65.5239 70.136C66.3998 65.9735 68.167 62.0502 70.7039 58.636C72.0319 56.792 73.8279 53.536 76.1779 52.722C75.3957 52.2344 74.6999 51.6204 74.1189 50.905C73.5318 50.3373 72.982 49.7324 72.4729 49.094C53.7589 74.183 56.2619 93.675 56.2729 95.657C56.169 96.6101 56.4433 97.566 57.0369 98.319C59.8259 100.163 69.8439 101.776 69.8439 101.776C69.9569 97.8936 70.3065 94.0218 70.8909 90.182Z" fill="#F0E4CD"/>
<path d="M180.591 7.54297C180.572 3.39597 157.952 0.13697 130.066 0.25397C102.18 0.37097 79.5909 3.83697 79.6069 7.98297C79.6229 12.129 102.246 15.393 130.132 15.271C158.018 15.149 180.608 11.69 180.59 7.54297M130.124 13.556C108.609 13.65 91.1559 11.132 91.1419 7.93197C91.1279 4.73197 108.558 2.06297 130.074 1.96997C151.59 1.87697 169.042 4.39397 169.056 7.59297C169.07 10.792 151.639 13.462 130.124 13.556Z" fill="#F0E4CD"/>
<path d="M81.2849 10.365C80.1156 9.67963 79.5286 8.94763 79.5239 8.16896C79.5019 3.03196 105.711 0.147959 130.381 0.0369586C142.338 -0.114617 154.291 0.570388 166.153 2.08696C176.199 3.53696 181.297 5.43696 181.308 7.72796C181.33 12.865 155.121 15.75 130.451 15.857C118.494 16.0101 106.541 15.3261 94.6789 13.81C88.0399 12.851 83.5609 11.699 81.2849 10.365ZM179.194 6.26496C177.306 5.15896 173.235 3.92096 166.039 2.88196C154.216 1.3701 142.303 0.686767 130.385 0.836959C100.422 0.971959 80.3099 4.73696 80.3249 8.16696C80.3249 9.50296 84.1359 11.477 94.7929 13.017C106.615 14.5277 118.529 15.2094 130.447 15.057C160.41 14.925 180.522 11.164 180.507 7.72996C180.507 7.29596 180.107 6.79496 179.194 6.26296" fill="#2C2D30"/>
<path d="M92.4678 9.88297C91.5345 9.33497 91.0652 8.74697 91.0598 8.11897C91.0518 6.29697 94.9978 4.76997 102.791 3.57697C111.937 2.32602 121.16 1.71753 130.391 1.75597C139.62 1.63833 148.847 2.16662 158.003 3.33697C165.803 4.46397 169.762 5.95997 169.772 7.77897C169.782 9.59797 165.832 11.129 158.04 12.321C148.894 13.5724 139.671 14.1812 130.44 14.143C121.21 14.2619 111.983 13.7336 102.827 12.562C97.7108 11.823 94.2458 10.928 92.4648 9.88397M168.011 6.71397C166.586 5.87897 163.459 4.93297 157.884 4.12897C148.767 2.96471 139.581 2.43909 130.391 2.55597C121.2 2.51886 112.017 3.124 102.911 4.36697C94.7558 5.61697 91.8568 7.12197 91.8608 8.11697C91.8648 9.11197 94.7768 10.591 102.945 11.769C112.061 12.9339 121.248 13.4595 130.438 13.342C139.629 13.379 148.812 12.7732 157.919 11.529C166.076 10.28 168.975 8.77397 168.971 7.77997C168.971 7.46597 168.671 7.10097 168.014 6.71297" fill="#2C2D30"/>
<path d="M152.945 18.785C152.953 20.616 142.978 22.144 130.666 22.197C118.354 22.25 108.366 20.81 108.358 18.979C108.35 17.148 118.325 15.62 130.637 15.567C142.949 15.514 152.937 16.954 152.945 18.785Z" fill="#F0E4CD"/>
<path d="M108.621 20.006C107.772 19.506 107.77 19.083 107.769 18.87C107.769 18.447 107.762 17.152 114.628 16.101C119.87 15.3835 125.155 15.0346 130.446 15.057C135.737 14.9885 141.026 15.2912 146.274 15.963C153.149 16.956 153.156 18.248 153.156 18.674C153.156 19.1 153.164 20.392 146.298 21.443C141.056 22.1603 135.77 22.5095 130.479 22.488C125.189 22.5553 119.9 22.2526 114.652 21.582C111.198 21.082 109.478 20.508 108.621 20.006ZM151.864 18.206C151.211 17.823 149.691 17.266 146.159 16.756C140.95 16.0898 135.702 15.789 130.451 15.856C125.2 15.8348 119.954 16.1806 114.751 16.891C108.638 17.827 108.572 18.856 108.572 18.867C108.572 18.878 108.645 19.903 114.772 20.787C119.981 21.4526 125.229 21.7534 130.48 21.687C135.731 21.7079 140.977 21.3617 146.18 20.651C152.292 19.715 152.359 18.686 152.359 18.675C152.359 18.664 152.345 18.484 151.867 18.204" fill="#2C2D30"/>
<path d="M241.148 111.348C241.105 110.314 240.853 109.299 240.407 108.364C239.962 107.43 239.331 106.596 238.554 105.912C233.628 100.955 221.706 96.645 205.396 93.421C205.374 93.6766 205.328 93.9296 205.26 94.177C217.776 96.645 227.669 99.752 233.728 103.303C235.276 104.175 236.707 105.242 237.985 106.476C238.686 107.086 239.256 107.831 239.662 108.666C240.068 109.502 240.301 110.411 240.347 111.339C240.253 119.252 192.902 135.273 130.971 135.544C68.8629 135.812 21.4499 120.204 21.3889 112.298C21.4413 111.36 21.6807 110.442 22.0928 109.597C22.5049 108.753 23.0816 107.999 23.7889 107.381C28.5989 102.515 40.1699 98.212 56.0219 94.911C55.9915 94.6115 55.9949 94.3096 56.0319 94.011C39.9319 97.352 28.2249 101.758 23.2189 106.823C22.436 107.515 21.7999 108.356 21.3482 109.298C20.8964 110.24 20.6382 111.263 20.5889 112.307C20.6029 114.178 22.5889 116.255 26.2239 118.387C40.9909 127.037 83.0179 136.552 130.975 136.344C189.5 136.089 241.038 120.584 241.148 111.344" fill="#2C2D30"/>
<path d="M153.176 24.3569C152.894 24.4449 152.611 24.5279 152.326 24.6079C151.762 25.6509 144.308 27.4319 130.5 27.4929C116.122 27.5539 108.6 25.6859 108.6 24.6729C108.344 24.5809 108.092 24.4729 107.838 24.3729C107.809 24.4703 107.796 24.5715 107.799 24.6729C107.799 25.0919 108.121 25.4669 108.699 25.8039C111.873 27.6619 122.79 28.3249 130.514 28.2909C139.636 28.2499 153.202 27.2019 153.191 24.4779C153.191 24.4429 153.191 24.4009 153.185 24.3549" fill="#2C2D30"/>
<path d="M108.57 18.8675L107.769 18.871L107.794 24.6769L108.595 24.6735L108.57 18.8675Z" fill="#2C2D30"/>
<path d="M112.941 26.854L112.916 21.048H113.716L113.742 26.854H112.941Z" fill="#2C2D30"/>
<path d="M124.876 28.0569L124.851 22.2509H125.651L125.677 28.0569H124.876Z" fill="#2C2D30"/>
<path d="M152.381 24.482L152.356 18.676H153.156L153.182 24.482H152.381Z" fill="#2C2D30"/>
<path d="M146.283 26.699L146.258 20.899H147.058L147.083 26.699H146.283Z" fill="#2C2D30"/>
<path d="M136.604 27.786L136.579 21.986H137.379L137.404 27.786H136.604Z" fill="#2C2D30"/>
<path d="M191.953 54.195C192.232 54.1033 192.522 54.0469 192.815 54.027C183.177 39.8646 168.972 29.4372 152.572 24.486C152.427 24.7282 152.259 24.9565 152.072 25.168C168.294 30.0002 182.371 40.2447 191.957 54.195" fill="#2C2D30"/>
<path d="M198.232 129.284C197.947 129.295 197.662 129.272 197.383 129.214C196.608 130.789 195.792 132.352 194.89 133.89C188.161 145.399 178.455 154.883 166.793 161.345C155.132 167.806 141.945 171.007 128.618 170.61C115.292 170.214 102.319 166.235 91.0621 159.091C79.8054 151.947 70.6809 141.903 64.6479 130.014C64.3246 130.013 64.003 129.968 63.6919 129.88C69.7196 141.986 78.9083 152.237 90.2855 159.547C101.663 166.858 114.805 170.957 128.321 171.409C141.837 171.861 155.223 168.651 167.064 162.118C178.904 155.584 188.758 145.971 195.582 134.295C196.547 132.648 197.411 130.972 198.232 129.284Z" fill="#2C2D30"/>
<path d="M122.702 47.365C118.902 42.142 112.468 39.327 104.573 39.441C96.7289 39.555 88.3729 42.548 81.0469 47.87C80.1135 48.548 79.2115 49.2533 78.3409 49.986C78.3239 50.021 78.2989 50.05 78.2809 50.086C78.1719 50.306 78.8099 50.022 78.6689 50.222C79.1429 49.91 78.5599 50.448 79.1369 50.381C79.8029 49.839 80.8139 49.031 81.5169 48.521C88.7119 43.295 96.9039 40.355 104.585 40.244C108.864 40.0757 113.107 41.0824 116.855 43.155C118.895 44.3383 120.666 45.9335 122.055 47.839C129.596 58.22 123.681 75.419 108.871 86.178C101.671 91.405 93.4819 94.344 85.8009 94.456C78.1729 94.565 71.9669 91.87 68.3319 86.856C64.6969 81.842 64.0489 75.116 66.5119 67.895C68.5295 62.2972 71.8125 57.2408 76.1049 53.12C76.2509 52.653 75.8489 52.882 76.1349 52.483C75.8349 52.683 76.1349 52.183 75.7909 52.294C71.2903 56.5521 67.8524 61.8075 65.7538 67.637C63.2028 75.111 63.8879 82.105 67.6829 87.329C69.1373 89.3224 70.991 90.9912 73.1259 92.229C76.9992 94.3758 81.3867 95.4203 85.8119 95.249C93.6559 95.135 102.012 92.1409 109.34 86.819C124.509 75.7999 130.503 58.098 122.702 47.359" fill="#2C2D30"/>
<path d="M122.053 47.837C120.664 45.9315 118.893 44.3363 116.853 43.153C113.106 41.08 108.862 40.0732 104.583 40.242C96.9019 40.353 88.7099 43.293 81.5149 48.518C80.8149 49.029 79.8009 49.837 79.1349 50.379L78.9239 50.57C79.702 51.1884 80.4211 51.8777 81.0719 52.629C82.2719 53.896 83.5779 55.035 84.8619 56.216C87.4419 58.589 90.0619 60.875 92.6999 63.174C94.0639 64.361 95.3289 65.655 96.6549 66.884C97.6799 67.834 98.8549 68.646 99.8459 69.631C100.494 70.2557 100.941 71.0591 101.131 71.939C101.304 72.076 101.473 72.22 101.649 72.354C102.456 72.969 102.61 74.594 101.328 74.813C100.807 74.9015 100.272 74.8515 99.7759 74.668C98.1039 75.597 96.0009 74.768 94.6249 73.668C93.4833 72.6354 92.4103 71.5293 91.4129 70.357C90.2309 69.134 89.0509 67.951 87.9689 66.633C85.9479 64.173 83.6249 61.901 81.7979 59.29C80.1809 56.981 77.9369 55.243 76.1979 53.036L76.1069 53.119C71.8127 57.2401 68.5286 62.2976 66.5109 67.897C64.0469 75.117 64.6929 81.851 68.3309 86.858C71.9689 91.865 78.1709 94.563 85.7999 94.458C93.4809 94.347 101.673 91.408 108.869 86.181C123.68 75.417 129.591 58.218 122.053 47.837Z" fill="#F0E4CD"/>
<path d="M189.257 75.3609C188.833 72.2294 188.198 69.13 187.357 66.0839C187.047 65.8715 186.781 65.602 186.572 65.2899C186.18 65.4579 185.756 65.575 185.372 65.742C184.972 65.918 184.616 66.111 184.254 66.257C183.354 67.492 181.624 67.9159 180.32 68.6219C177.834 69.9699 175.252 71.1999 172.644 72.3039C169.905 73.4629 167.489 75.0379 164.821 76.3039C163.221 77.0669 161.145 77.8359 159.7 76.577C159.292 76.764 158.884 76.9509 158.48 77.1379C156.917 77.8629 155.553 75.5379 157.122 74.8149C157.6 74.5929 158.081 74.3719 158.565 74.1519C158.619 73.8413 158.738 73.5454 158.913 73.2832C159.089 73.021 159.317 72.7982 159.583 72.629C159.568 72.4006 159.629 72.1737 159.755 71.9829C159.882 71.7921 160.067 71.6478 160.283 71.572C163.22 70.283 166.34 69.5719 169.143 67.9719C171.86 66.4229 175.085 65.8109 178.006 64.7449C179.424 64.2269 181.265 63.107 182.797 62.958C182.973 62.9401 183.15 62.9424 183.325 62.965C183.471 62.872 183.62 62.7839 183.772 62.7059C184.354 62.4059 184.963 62.106 185.572 61.84C185.567 61.819 185.564 61.7969 185.559 61.7749C182.17 55.0909 176.148 47.6749 170.947 45.7049C163.812 43.0049 157.909 42.1749 152.784 45.6439C147.659 49.1129 144.756 55.2229 144.612 62.8509C144.468 70.5319 147.133 78.817 152.118 86.183C162.379 101.343 179.107 102.462 185.907 91.505C187.149 89.505 190.121 82.1049 189.256 75.3589" fill="#719094"/>
<path d="M50.4229 64.2289L26.8329 50.4049C26.6453 50.2938 26.5056 50.117 26.4406 49.9089C26.3757 49.7007 26.3902 49.4758 26.4813 49.2777C26.5724 49.0796 26.7337 48.9223 26.934 48.8361C27.1343 48.7499 27.3594 48.7409 27.5659 48.8109L53.6079 57.7809L53.3469 58.5379L27.3049 49.5689C27.296 49.5632 27.2858 49.5597 27.2752 49.5588C27.2647 49.5578 27.254 49.5594 27.2442 49.5634C27.2344 49.5675 27.2257 49.5738 27.2189 49.5819C27.212 49.59 27.2072 49.5996 27.2049 49.6099C27.1729 49.6779 27.2109 49.6999 27.2359 49.7099L50.8279 63.5369L50.4229 64.2289Z" fill="#2C2D30"/>
<path d="M71.8609 50.452C71.8609 50.452 70.7358 47.387 68.7528 47.076C66.7698 46.765 57.9159 51.246 51.7979 69.012C51.7979 69.012 59.9539 55.689 62.6489 55.644C65.3439 55.599 55.7689 66.117 59.6409 73.608C59.6409 73.608 63.7989 60.085 71.8609 50.452Z" fill="#2C2D30"/>
<path d="M57.2909 83.0179C55.6872 84.5329 53.9662 85.9185 52.1439 87.1619C50.7209 87.8749 47.8689 86.2729 49.5669 78.4919C49.5669 78.4919 49.4339 82.9429 51.2879 82.9469C53.1419 82.9509 58.4789 77.6119 58.4789 77.6119L57.2909 83.0179Z" fill="#2C2D30"/>
<path d="M51.8329 61.29L34.7909 53.551L50.9989 63.051L51.8329 61.29Z" fill="#2C2D30"/>
<path d="M64.6499 44.562C63.8744 44.1079 63.2509 43.434 62.8583 42.6255C62.4657 41.817 62.3217 40.9103 62.4444 40.02C62.5672 39.1297 62.9512 38.2958 63.5479 37.6237C64.1446 36.9516 64.9272 36.4716 65.7968 36.2443C66.6663 36.0171 67.5837 36.0527 68.4329 36.3469C69.2822 36.641 70.0251 37.1803 70.5678 37.8967C71.1106 38.6131 71.4286 39.4743 71.4819 40.3715C71.5351 41.2686 71.3211 42.1614 70.8669 42.937C70.2569 43.9757 69.2596 44.7299 68.0941 45.0342C66.9285 45.3385 65.6899 45.1679 64.6499 44.56M68.8399 37.41C68.2013 37.0361 67.4662 36.86 66.7275 36.9038C65.9888 36.9476 65.2796 37.2094 64.6896 37.6561C64.0997 38.1028 63.6554 38.7144 63.4128 39.4135C63.1703 40.1127 63.1405 40.868 63.3271 41.5841C63.5137 42.3002 63.9083 42.9449 64.4612 43.4368C65.0141 43.9286 65.7004 44.2456 66.4333 44.3475C67.1663 44.4495 67.913 44.3319 68.5791 44.0097C69.2453 43.6874 69.801 43.1749 70.1759 42.537C70.6769 41.6803 70.8176 40.6599 70.5671 39.6997C70.3167 38.7394 69.6955 37.9178 68.8399 37.415" fill="#2C2D30"/>
<path d="M70.9909 41.199C72.1398 40.8122 73.3613 40.6905 74.5639 40.843C75.0792 40.9312 75.5537 41.1795 75.9199 41.5527C76.2861 41.9259 76.5254 42.405 76.6039 42.922C76.6871 43.4127 76.7096 43.9118 76.6709 44.408L77.4709 44.473C77.5163 43.9111 77.4915 43.3457 77.3969 42.79C77.2916 42.1066 76.9732 41.474 76.4871 40.9823C76.001 40.4906 75.372 40.165 74.6899 40.052C73.4123 39.8832 72.1133 39.9975 70.8849 40.387L70.9909 41.199Z" fill="#2C2D30"/>
<path d="M56.4708 86.2459C55.1138 87.4823 53.6868 88.6395 52.1968 89.7119C51.6867 90.0913 51.0482 90.2557 50.4182 90.1699C49.7883 90.0841 49.217 89.7549 48.8268 89.2529C45.0758 84.2459 46.6798 72.1879 52.6378 60.5809C56.2158 53.6099 60.8178 47.8649 65.2678 44.3859L64.5448 43.9019C60.0798 47.4499 55.5378 53.1779 51.9258 60.2139C45.7358 72.2719 44.1978 84.4139 48.1858 89.7329C48.4331 90.0626 48.7439 90.3394 49.0998 90.5469C49.6486 90.8647 50.2779 91.0161 50.9111 90.9829C51.5443 90.9497 52.1543 90.7333 52.6668 90.3599C54.1832 89.2709 55.635 88.0946 57.0148 86.8369L56.4708 86.2459Z" fill="#2C2D30"/>
<path d="M94.4909 73.7799C94.1689 73.5924 93.8779 73.3563 93.6279 73.0799L68.1849 44.742L68.7849 44.2069L94.2259 72.5369C94.4761 72.8139 94.7798 73.0374 95.1187 73.1937C95.4576 73.3501 95.8246 73.4361 96.1977 73.4467C96.5708 73.4572 96.9422 73.392 97.2893 73.2551C97.6365 73.1181 97.9523 72.9122 98.2177 72.6498C98.4831 72.3874 98.6926 72.0739 98.8335 71.7282C98.9743 71.3826 99.0437 71.012 99.0374 70.6389C99.031 70.2657 98.9491 69.8977 98.7966 69.557C98.6441 69.2164 98.4241 68.9102 98.1499 68.657L70.2499 43.027L70.7909 42.437L98.6909 68.0699C99.3385 68.6641 99.7438 69.4765 99.829 70.3512C99.9142 71.2259 99.6734 72.1012 99.1526 72.8092C98.6319 73.5171 97.868 74.0078 97.0076 74.187C96.1472 74.3661 95.251 74.2212 94.4909 73.7799Z" fill="#2C2D30"/>
<path d="M191.746 64.167C190.807 63.6204 190.104 62.7458 189.771 61.7116C189.438 60.6774 189.5 59.5567 189.944 58.5653C190.389 57.5739 191.184 56.7819 192.177 56.3417C193.17 55.9016 194.291 55.8444 195.324 56.1813C196.357 56.5181 197.229 57.2251 197.771 58.1662C198.314 59.1073 198.489 60.2159 198.264 61.2786C198.038 62.3412 197.427 63.2828 196.549 63.9221C195.67 64.5613 194.587 64.853 193.506 64.741C192.885 64.6771 192.285 64.4814 191.746 64.167ZM195.781 57.283C195.263 56.9788 194.678 56.8094 194.077 56.7904C193.477 56.7713 192.882 56.9031 192.346 57.1738C191.81 57.4445 191.351 57.8453 191.01 58.3396C190.669 58.8339 190.457 59.4058 190.395 60.003C190.328 60.6437 190.435 61.2906 190.705 61.8758C190.974 62.4609 191.396 62.9626 191.927 63.3283C192.457 63.6939 193.076 63.9099 193.719 63.9536C194.362 63.9974 195.005 63.8672 195.58 63.5768C196.155 63.2864 196.641 62.8464 196.987 62.3032C197.334 61.76 197.527 61.1335 197.548 60.4896C197.568 59.8457 197.415 59.2081 197.104 58.6439C196.793 58.0796 196.336 57.6095 195.781 57.283Z" fill="#2C2D30"/>
<path d="M161.252 76.774C160.674 76.4355 160.204 75.9412 159.895 75.3479C159.585 74.7545 159.449 74.086 159.501 73.4188C159.554 72.7516 159.794 72.1127 160.192 71.5753C160.591 71.0379 161.134 70.6236 161.757 70.38L189.914 59.869L190.194 60.62L162.043 71.129C161.694 71.2645 161.376 71.4697 161.109 71.7319C160.841 71.9941 160.63 72.308 160.488 72.6544C160.345 73.0009 160.275 73.3726 160.281 73.747C160.287 74.1215 160.369 74.4908 160.522 74.8326C160.675 75.1744 160.896 75.4815 161.171 75.7352C161.447 75.9889 161.771 76.184 162.124 76.3085C162.477 76.433 162.852 76.4844 163.226 76.4596C163.6 76.4347 163.964 76.3341 164.298 76.164L190.78 62.41L191.149 63.12L164.663 76.876C164.213 77.1045 163.72 77.2348 163.216 77.258C162.712 77.2813 162.209 77.1971 161.74 77.011C161.571 76.9449 161.408 76.8657 161.252 76.774Z" fill="#2C2D30"/>
<path d="M241.952 76.4539C241.468 76.172 241.057 75.7812 240.75 75.3124C240.444 74.8436 240.252 74.3099 240.188 73.7536C240.124 73.1973 240.191 72.6337 240.383 72.1078C240.575 71.5819 240.887 71.108 241.295 70.7239C241.781 70.2657 242.385 69.9518 243.039 69.8172C243.694 69.6827 244.373 69.7329 245 69.9622C245.627 70.1915 246.179 70.5908 246.592 71.1156C247.006 71.6403 247.265 72.2697 247.341 72.9334C247.417 73.5971 247.307 74.2688 247.023 74.8735C246.739 75.4782 246.292 75.992 245.733 76.3573C245.174 76.7227 244.524 76.9252 243.856 76.9423C243.188 76.9594 242.529 76.7903 241.952 76.4539ZM245.182 70.924C244.652 70.6149 244.035 70.4883 243.427 70.5638C242.818 70.6393 242.251 70.9126 241.812 71.3417C241.374 71.7709 241.089 72.3321 241 72.9391C240.912 73.5461 241.025 74.1654 241.323 74.7017C241.621 75.238 242.086 75.6617 242.648 75.9076C243.21 76.1536 243.838 76.2082 244.434 76.063C245.03 75.9179 245.561 75.581 245.947 75.1042C246.333 74.6275 246.552 74.0371 246.57 73.4239C246.585 72.921 246.463 72.4233 246.219 71.9834C245.975 71.5435 245.617 71.1775 245.182 70.924Z" fill="#2C2D30"/>
<path d="M218.747 63.653L241.247 71.911L241.523 71.158L219.037 62.907C218.962 63.1636 218.865 63.4132 218.747 63.653Z" fill="#2C2D30"/>
<path d="M240.717 73.156L217.586 67.744C217.465 67.9945 217.32 68.2332 217.155 68.457C217.173 68.462 217.187 68.473 217.204 68.477L240.533 73.937L240.717 73.156Z" fill="#2C2D30"/>
<path d="M104.258 42.354C104.258 42.354 119.145 39.629 122.844 54.174C126.543 68.719 106.946 87.815 95.9618 91.337C84.9778 94.859 80.5388 87.559 82.3728 83.374C84.2068 79.189 78.0238 76.803 75.3318 82.187C72.6398 87.571 80.7628 88.551 77.1758 88.572C73.5888 88.593 70.4758 85.685 71.8868 80.788C73.2978 75.891 77.9358 72.728 84.6188 74.788C84.6188 74.788 85.1508 73.088 88.5418 73.374C91.9328 73.66 92.7198 72.274 92.7198 72.274C92.7198 72.274 92.5078 71.324 93.4568 72.282C94.4058 73.24 95.6058 74.457 96.9718 73.776C98.3378 73.095 100.351 71.284 99.0158 69.116C97.6808 66.948 98.0398 65.937 99.7908 66.326C101.542 66.715 101.704 66.226 100.291 63.891C98.8778 61.556 98.3039 57.679 102.62 54.174C106.936 50.669 107.549 50.912 104.92 48.561C102.291 46.21 102.527 42.529 104.261 42.354" fill="#2C2D30"/>
<path d="M157.568 45.937C157.568 45.937 142.968 53.6259 148.28 74.2609C153.592 94.896 173.646 96.32 172.317 94.0369C170.988 91.7539 177.793 87.9639 172.502 84.8629C167.211 81.7619 162.358 78.8349 164.217 76.5139C164.217 76.5139 160.056 77.1399 159.886 74.0639C159.716 70.9879 163.1 70.074 163.1 70.074C163.1 70.074 164.2 67.4049 160.432 66.3019C156.664 65.1989 158.47 61.7289 160.632 59.2259C162.794 56.7229 164.116 54.073 161.16 52.979C158.204 51.885 157.869 51.573 158.707 49.743C159.545 47.913 157.567 45.9429 157.567 45.9429" fill="#2C2D30"/>
<path d="M187.261 65.2429C186.919 65.0049 186.805 65.2029 186.577 64.9159C186.593 65.1699 186.426 64.9639 186.392 65.2159C191.522 78.8749 188.357 92.861 178.792 97.1969C168.637 101.797 155.062 93.8159 148.534 79.3969C142.006 64.9779 144.957 49.5179 155.113 44.9169C160.18 42.6169 166.097 43.4579 171.567 46.6629C177.376 50.2815 182.003 55.516 184.881 61.7249C185.187 61.9469 185.421 61.8949 185.632 62.1569C185.618 61.9549 185.639 61.7521 185.693 61.5569C178.841 47.2719 165.139 39.4909 154.783 44.1819C144.224 48.9649 141.094 64.9079 147.804 79.7219C150.73 86.5014 155.658 92.2252 161.927 96.1269C167.622 99.4639 173.812 100.327 179.117 97.9269C188.999 93.4499 192.371 79.1969 187.261 65.2429Z" fill="#2C2D30"/>
<path d="M190.728 51.111C190.728 51.111 193.828 54.854 194.298 56.52L193.384 56.599C193.384 56.599 192.391 54.794 191.579 53.656C191.075 52.898 190.781 52.0197 190.728 51.111Z" fill="#2C2D30"/>
<path d="M221.091 35.195C221.031 34.7364 220.852 34.3015 220.571 33.9341C220.29 33.5667 219.918 33.2797 219.491 33.102C219.073 32.9219 218.616 32.8549 218.164 32.9075C217.712 32.9602 217.282 33.1307 216.917 33.402C211.776 37.192 202.097 45.224 195.026 56.445L195.704 56.871C202.704 45.763 212.297 37.803 217.392 34.046C217.645 33.8581 217.944 33.7402 218.257 33.704C218.571 33.6679 218.888 33.7148 219.178 33.84C219.476 33.9637 219.737 34.1643 219.933 34.4212C220.129 34.6781 220.253 34.9824 220.294 35.303C221.59 44.9897 220.895 54.8389 218.252 64.2477C215.609 73.6565 211.073 82.4269 204.923 90.022C204.966 90.3374 204.982 90.6558 204.972 90.974L205.072 91.065C205.278 90.847 225.623 68.834 221.091 35.195Z" fill="#2C2D30"/>
<path d="M195.981 56.9369C195.981 56.9369 203.764 46.3689 212.652 39.6369C212.821 39.5038 213.022 39.4175 213.235 39.3867C213.448 39.3559 213.666 39.3818 213.865 39.4616C214.065 39.5415 214.241 39.6725 214.374 39.8417C214.507 40.0108 214.593 40.2119 214.624 40.4249C215.437 46.3019 216.652 64.5399 204.873 84.8989L200.473 69.6589L197.316 62.5589C197.316 62.5589 199.256 58.7989 195.986 56.9379" fill="#2C2D30"/>
<path d="M67.1079 134.484C67.1079 134.484 134.958 151.971 194.89 133.89L197.982 129.284C197.982 129.284 163.495 135.884 133.282 136.326L104.768 135.152C104.768 135.152 84.3679 133.86 76.0349 132.006C72.1752 131.046 68.2498 130.373 64.2909 129.992C64.8409 131.7 65.8081 133.244 67.1049 134.484" fill="#2C2D30"/>
<path d="M124.467 171.144C124.467 171.144 126.467 174.844 129.977 175.395C133.487 175.946 136.377 170.767 136.377 170.767L124.467 171.144Z" fill="#2C2D30"/>
<path d="M83.7399 111.426L88.4819 106.298L89.5759 106.287L85.1479 111.082C90.7649 113.013 136.689 127.782 178.354 110.653L175.876 105.633H176.802L179.447 111.067L179.055 111.23C134.416 129.811 84.7969 111.817 84.3009 111.63L83.7399 111.426Z" fill="#2C2D30"/>
<path d="M92.6138 113.87L91.9229 113.47L95.4308 107.485L96.4088 107.398L92.6138 113.87Z" fill="#2C2D30"/>
<path d="M133.232 109.923L132.431 109.944L132.672 119.3L133.473 119.279L133.232 109.923Z" fill="#2C2D30"/>
<path d="M172.163 113.454L168.804 107.105L169.662 107.013L172.871 113.078L172.163 113.454Z" fill="#2C2D30"/>
<path d="M205.796 96.223C205.796 96.223 225.061 99.678 233.028 104.817C240.995 109.956 239.085 112.699 233.256 115.781C227.427 118.863 208.656 125.811 190.984 127.981C190.984 127.981 208.025 123.713 214.025 117.569C220.025 111.425 197.256 100.037 197.256 100.037L205.796 96.223Z" fill="#2C2D30"/>
<path d="M55.7639 96.2159C50.8159 96.9974 45.9866 98.4012 41.3909 100.394C34.3309 103.567 42.1309 102.336 37.0239 104.912C31.9169 107.488 28.3239 108.282 27.3749 111.674C26.4259 115.066 29.9499 118.174 38.0749 120.149C46.1999 122.124 38.2619 119.794 34.4439 115.932C30.6259 112.07 29.8509 109.644 39.3999 107.697C48.9489 105.75 54.8279 103.045 48.5999 102.183C42.3719 101.321 56.3609 98.5599 56.3609 98.5599L55.7639 96.2159Z" fill="#2C2D30"/>
<path d="M58.6909 99.037C56.0345 99.4869 53.4177 100.146 50.8649 101.007C48.1249 102.101 54.2089 100.646 54.1469 102.93C54.0849 105.214 48.4169 106.767 45.7819 107.601C43.1469 108.435 50.3729 107.391 54.1589 105.78C57.9449 104.169 59.6519 103.139 57.3129 101.88C54.9739 100.621 63.4129 100.686 63.4129 100.686L58.6909 99.037Z" fill="#2C2D30"/>
<path d="M39.9569 109.415C39.9569 109.415 34.3389 110.415 34.3569 112.4C34.3749 114.385 37.0299 116.983 42.1139 118.8C47.1979 120.617 37.0799 116.9 37.1359 114.027C37.1919 111.154 39.9559 109.413 39.9559 109.413" fill="#2C2D30"/>
<path d="M194.663 64.362C193.814 64.4577 192.957 64.2651 192.23 63.815C191.798 63.5602 191.418 63.2276 191.108 62.834L187.258 64.746C187.258 64.76 187.258 64.774 187.258 64.788C195.209 83.138 193.476 98.97 193.476 98.97L201.928 96.105C201.765 85.1306 199.289 74.314 194.661 64.362" fill="#2C2D30"/>
<path d="M190.397 59.864C190.523 59.1857 190.8 58.5447 191.209 57.989C182.79 44.4289 170.05 34.0988 155.043 28.664C170.87 38.293 180.243 50.277 185.79 61.61L190.397 59.864Z" fill="#2C2D30"/>
<path d="M112.181 161.369L112.081 161.3C111.967 161.221 100.708 153.189 98.5909 136.492L99.3859 136.392C101.356 151.932 111.367 159.773 112.446 160.575L118.129 160.746C110.995 148.593 110.274 139.076 110.268 138.98L111.068 138.926C111.074 139.026 111.814 148.688 119.19 160.961L119.568 161.59L112.181 161.369Z" fill="#2C2D30"/>
<path d="M139.682 162.451L140.033 161.786C145.086 152.198 146.787 140.194 146.804 140.074L147.597 140.184C147.581 140.303 145.939 151.899 141.084 161.494L147.963 160.757C148.839 159.372 155.116 149.204 156.763 139.402L157.554 139.535C155.754 150.195 148.6 161.243 148.527 161.353L148.427 161.513L139.682 162.451Z" fill="#2C2D30"/>
<path d="M170.612 155.09L171.766 153.768C176.643 148.332 180.685 142.201 183.757 135.575L184.499 135.875C181.696 141.956 178.067 147.621 173.716 152.711C181.138 148.222 187.022 141.585 190.591 133.679L191.319 134.015C184.348 149.071 172.347 154.348 172.227 154.4L170.612 155.09Z" fill="#2C2D30"/>
<path d="M109.691 31.611L92.6648 13.177C92.2742 13.1838 91.8837 13.1564 91.4978 13.095L109.105 32.154C109.149 32.2017 109.184 32.2579 109.207 32.3192C109.229 32.3805 109.24 32.4457 109.237 32.511C109.231 32.6081 109.197 32.7015 109.139 32.7796C109.081 32.8578 109.002 32.9173 108.911 32.951C108.819 32.9846 108.72 32.9909 108.625 32.9691C108.531 32.9472 108.444 32.8982 108.377 32.828L89.7589 12.675C89.4829 12.587 89.2068 12.495 88.9338 12.399C88.6041 12.2787 88.288 12.1238 87.9908 11.937L107.791 33.372C108.03 33.6005 108.347 33.7293 108.678 33.7321C109.009 33.7349 109.328 33.6115 109.571 33.387C109.814 33.1625 109.963 32.8538 109.986 32.5239C110.009 32.1939 109.906 31.8674 109.697 31.611" fill="#2C2D30"/>
<path d="M163.845 29.301L173.656 11.756C173.292 11.9251 172.912 12.0554 172.521 12.145L163.214 28.789C163.444 28.9338 163.656 29.1057 163.845 29.301Z" fill="#2C2D30"/>
<path d="M162.318 28.357L171.31 12.277C171.012 12.2838 170.713 12.2691 170.417 12.233L161.506 28.168C161.782 28.2051 162.054 28.2684 162.318 28.357Z" fill="#2C2D30"/>
<path d="M104.732 26.837C106.125 26.317 107.527 25.822 108.947 25.386C108.697 25.2053 108.472 24.994 108.275 24.757C106.892 25.191 105.526 25.68 104.169 26.193L104.732 26.837Z" fill="#2C2D30"/>
<path d="M75.3558 46.91C82.9453 38.4009 92.3991 31.7614 102.979 27.51L102.421 26.875C91.8054 31.1861 82.3228 37.879 74.7048 46.437C74.9355 46.5752 75.1534 46.7329 75.3558 46.91Z" fill="#2C2D30"/>
<path d="M205.796 96.2229C205.717 84.4389 202.928 72.831 197.646 62.2969C197.511 62.5792 197.348 62.8472 197.16 63.097C202.187 73.2016 204.866 84.3116 204.996 95.5969C204.997 95.8058 204.935 96.0102 204.819 96.1834C204.702 96.3567 204.536 96.4907 204.342 96.5679C137.842 122.905 68.5578 101.876 57.7268 98.2759C57.3897 98.1642 57.0958 97.9499 56.8862 97.6631C56.6767 97.3762 56.5619 97.0312 56.5578 96.6759C56.4366 79.5418 62.2759 62.8984 73.0759 49.5959C73.0909 49.5489 73.0978 49.496 73.1108 49.445C72.9091 49.3081 72.7197 49.1539 72.5448 48.9839C61.4279 62.615 55.4867 79.7367 55.7708 97.324C55.7747 97.6692 55.8865 98.0046 56.0906 98.2831C56.2947 98.5616 56.5808 98.7693 56.9088 98.8769C66.5848 102.077 137.651 124.023 205.018 97.157C205.018 97.174 205.103 97.149 205.228 97.102C205.394 97.0222 205.536 96.8978 205.636 96.7427C205.736 96.5875 205.792 96.4076 205.796 96.2229Z" fill="#2C2D30"/>
<path d="M152.954 27.477C152.954 27.477 145.342 31.159 128.245 30.634C133.015 32.9683 138.231 34.2535 143.54 34.403C152.352 34.643 152.666 38.662 151.553 40.56C150.44 42.458 153.302 40.153 154.895 34.86C156.488 29.567 152.954 27.48 152.954 27.48" fill="#2C2D30"/>
</svg>
